<svg width="414" height="224" viewBox="0 0 414 224" fill="none" xmlns="http://www.w3.org/2000/svg">
<path d="M11 189C11 190.657 12.3431 192 14 192H32V203C32 204.657 33.3431 206 35 206H52C53.6569 206 55 204.657 55 203V192H67C68.6569 192 70 190.657 70 189V167H92C93.6569 167 95 165.657 95 164V161H101V167C101 168.657 102.343 170 104 170H125V193C125 194.657 126.343 196 128 196H160C161.657 196 163 194.657 163 193V181H178C179.657 181 181 179.657 181 178V174H192V201C192 202.657 193.343 204 195 204H204V221C204 222.657 205.343 224 207 224H231C232.657 224 234 222.657 234 221V205H270C271.657 205 273 203.657 273 202V183H279V193C279 194.657 280.343 196 282 196H325C326.657 196 328 194.657 328 193V181H339V186C339 187.657 340.343 189 342 189H351V203C351 204.657 352.343 206 354 206H363C364.657 206 366 204.657 366 203V179H376V192C376 193.657 377.343 195 379 195H395C396.657 195 398 193.657 398 192V167H404C405.657 167 407 165.657 407 164V122H411C412.657 122 414 120.657 414 119V44C414 42.3431 412.657 41 411 41H391H332V119H52V157.5H11V189Z" fill="#00FF5C"/>
<path d="M0 119V182C0 183.657 1.34315 185 3 185H56.5V154.5H334V96.1902H403V37C403 35.3431 401.657 34 400 34H380V10C380 8.34315 378.657 7 377 7H355V6C355 4.34315 353.657 3 352 3H324C322.343 3 321 4.34315 321 6V13H310V3C310 1.34315 308.657 0 307 0H282C280.343 0 279 1.34315 279 3V20H258V12C258 10.3431 256.657 9 255 9H245C243.343 9 242 10.3431 242 12V34H218V23C218 21.3431 216.657 20 215 20H162C160.343 20 159 21.3431 159 23V43H144V26C144 24.3431 142.657 23 141 23H118C116.343 23 115 24.3431 115 26V37H105V20C105 18.3431 103.657 17 102 17H70C68.3431 17 67 18.3431 67 20V73H62V57C62 55.3431 60.6569 54 59 54H36C34.3431 54 33 55.3431 33 57V116H3C1.34315 116 0 117.343 0 119Z" fill="#BD00FF"/>
<mask id="path-3-inside-1_11_56" fill="white">
<path d="M5 122V185C5 186.657 6.34315 188 8 188H26V199C26 200.657 27.3431 202 29 202H46C47.6569 202 49 200.657 49 199V188H61C62.6569 188 64 186.657 64 185V163H86C87.6569 163 89 161.657 89 160V157H95V163C95 164.657 96.3431 166 98 166H119V189C119 190.657 120.343 192 122 192H154C155.657 192 157 190.657 157 189V177H172C173.657 177 175 175.657 175 174V170H186V197C186 198.657 187.343 200 189 200H198V217C198 218.657 199.343 220 201 220H225C226.657 220 228 218.657 228 217V201H264C265.657 201 267 199.657 267 198V179H273V189C273 190.657 274.343 192 276 192H319C320.657 192 322 190.657 322 189V177H333V182C333 183.657 334.343 185 336 185H345V199C345 200.657 346.343 202 348 202H357C358.657 202 360 200.657 360 199V175H370V188C370 189.657 371.343 191 373 191H389C390.657 191 392 189.657 392 188V163H398C399.657 163 401 161.657 401 160V118H405C406.657 118 408 116.657 408 115V40C408 38.3431 406.657 37 405 37H385V13C385 11.3431 383.657 10 382 10H360V9C360 7.34315 358.657 6 357 6H329C327.343 6 326 7.34315 326 9V16H315V6C315 4.34315 313.657 3 312 3H287C285.343 3 284 4.34315 284 6V23H263V15C263 13.3431 261.657 12 260 12H250C248.343 12 247 13.3431 247 15V37H223V26C223 24.3431 221.657 23 220 23H167C165.343 23 164 24.3431 164 26V46H149V29C149 27.3431 147.657 26 146 26H123C121.343 26 120 27.3431 120 29V40H110V23C110 21.3431 108.657 20 107 20H75C73.3431 20 72 21.3431 72 23V76H67V60C67 58.3431 65.6569 57 64 57H41C39.3431 57 38 58.3431 38 60V119H8C6.34315 119 5 120.343 5 122Z"/>
</mask>
<path d="M5 122V185C5 186.657 6.34315 188 8 188H26V199C26 200.657 27.3431 202 29 202H46C47.6569 202 49 200.657 49 199V188H61C62.6569 188 64 186.657 64 185V163H86C87.6569 163 89 161.657 89 160V157H95V163C95 164.657 96.3431 166 98 166H119V189C119 190.657 120.343 192 122 192H154C155.657 192 157 190.657 157 189V177H172C173.657 177 175 175.657 175 174V170H186V197C186 198.657 187.343 200 189 200H198V217C198 218.657 199.343 220 201 220H225C226.657 220 228 218.657 228 217V201H264C265.657 201 267 199.657 267 198V179H273V189C273 190.657 274.343 192 276 192H319C320.657 192 322 190.657 322 189V177H333V182C333 183.657 334.343 185 336 185H345V199C345 200.657 346.343 202 348 202H357C358.657 202 360 200.657 360 199V175H370V188C370 189.657 371.343 191 373 191H389C390.657 191 392 189.657 392 188V163H398C399.657 163 401 161.657 401 160V118H405C406.657 118 408 116.657 408 115V40C408 38.3431 406.657 37 405 37H385V13C385 11.3431 383.657 10 382 10H360V9C360 7.34315 358.657 6 357 6H329C327.343 6 326 7.34315 326 9V16H315V6C315 4.34315 313.657 3 312 3H287C285.343 3 284 4.34315 284 6V23H263V15C263 13.3431 261.657 12 260 12H250C248.343 12 247 13.3431 247 15V37H223V26C223 24.3431 221.657 23 220 23H167C165.343 23 164 24.3431 164 26V46H149V29C149 27.3431 147.657 26 146 26H123C121.343 26 120 27.3431 120 29V40H110V23C110 21.3431 108.657 20 107 20H75C73.3431 20 72 21.3431 72 23V76H67V60C67 58.3431 65.6569 57 64 57H41C39.3431 57 38 58.3431 38 60V119H8C6.34315 119 5 120.343 5 122Z" fill="black" stroke="black" stroke-width="2" mask="url(#path-3-inside-1_11_56)"/>
<path d="M175.5 54V65M219 63V53M224.5 95.5L234.5 103.5" stroke="#BD00FF" stroke-width="3"/>
<path d="M148.814 158.744C151.829 157.495 154.406 155.38 156.219 152.667C156.785 151.82 157.268 150.927 157.666 150H161.942C161.367 151.72 160.564 153.365 159.545 154.889C157.293 158.26 154.091 160.888 150.345 162.44L148.814 158.744Z" fill="#BD00FF"/>
<path d="M114.442 93.0199C113.175 93.4495 111 94 108 94L109.5 90C113.5 89.5 117.122 87.293 118.421 86.0749C120.712 83.9251 122.244 81.0891 122.784 77.9939C123.324 74.8986 122.845 71.7115 121.417 68.9124C119.99 66.1133 117.692 63.8536 114.869 62.4735C112.046 61.0934 108.851 60.6676 105.765 61.2602C102.68 61.8528 99.87 63.4316 97.7592 65.7591C95.6484 68.0866 94.3507 71.0368 94.0616 74.1656L94.0587 74.1963C93.8933 75.9849 93.5201 80.0201 97 83.5L95 88L92.7498 85.2048C92.0402 84.0531 91.0245 81.5711 91.0245 81.5711C91.0245 81.5711 89.8341 76.4419 90.0785 73.7975C90.4475 69.8056 92.1031 66.0416 94.7962 63.072C97.4893 60.1024 101.074 58.088 105.011 57.332C108.948 56.5759 113.024 57.1192 116.626 58.88C120.227 60.6408 123.159 63.5238 124.981 67.0951C126.802 70.6664 127.414 74.7327 126.724 78.6818C126.035 82.631 124.081 86.2493 121.158 88.9921C119.221 90.8091 116.928 92.1768 114.442 93.0199Z" fill="#BD00FF"/>
<path d="M226.5 188C242.24 188 255 175.24 255 159.5C255 157.442 254.782 155.434 254.367 153.5L256.975 151.5C257.644 154.055 258 156.736 258 159.5C258 176.897 243.897 191 226.5 191C209.103 191 195 176.897 195 159.5H198C198 175.24 210.76 188 226.5 188Z" fill="#BD00FF"/>
<path d="M235 159.5C235 164.194 231.194 168 226.5 168C221.806 168 218 164.194 218 159.5C218 154.806 221.806 151 226.5 151C231.194 151 235 154.806 235 159.5Z" fill="#BD00FF"/>
<path d="M144 115.5H160L163.5 106.5L169 128L176.5 108L180.5 121.5L185 115.5H201.5" stroke="#BD00FF" stroke-width="3"/>
<path d="M330.795 82C330.144 77.2733 327.968 72.8558 324.556 69.4436C320.431 65.3178 314.835 63 309 63C303.165 63 297.569 65.3178 293.444 69.4436C290.032 72.8558 287.856 77.2733 287.205 82H284.181C284.848 76.4749 287.347 71.298 291.322 67.3223C296.011 62.6339 302.37 60 309 60C315.63 60 321.989 62.6339 326.678 67.3223C330.653 71.298 333.152 76.4749 333.819 82H330.795Z" fill="#BD00FF"/>
<path fill-rule="evenodd" clip-rule="evenodd" d="M352 63C359.18 63 365 57.1797 365 50C365 42.8203 359.18 37 352 37C344.82 37 339 42.8203 339 50C339 57.1797 344.82 63 352 63ZM352 66C360.837 66 368 58.8366 368 50C368 41.1634 360.837 34 352 34C343.163 34 336 41.1634 336 50C336 58.8366 343.163 66 352 66Z" fill="#BD00FF"/>
<path d="M378.5 104C387.06 104 394 97.0604 394 88.5C394 79.9396 387.06 73 378.5 73C371.505 73 365.592 77.6342 363.663 84L360.831 83C363.173 75.4685 370.198 70 378.5 70C388.717 70 397 78.2827 397 88.5C397 98.7173 388.717 107 378.5 107C377.995 107 377.495 106.98 377 106.94L378.5 104Z" fill="#BD00FF"/>
<path d="M323.315 104H328.092C324.463 107.323 320.027 109.779 315.113 111.042L314.749 108.035C317.858 107.187 320.748 105.808 323.315 104Z" fill="#BD00FF"/>
<path d="M286.264 124C292.654 127.199 299.867 129 307.5 129C309.157 129 310.794 128.915 312.407 128.75L312.8 131.725C311.058 131.907 309.29 132 307.5 132C298.942 132 291.563 130.257 284.5 126.5L286.264 124Z" fill="#BD00FF"/>
<path d="M128 59.5H170.5M184 73V44M211 51V65M227.5 82L243 93.5" stroke="#FFF500" stroke-width="3"/>
<path d="M139.281 159.683C141.681 160.16 144.146 160.096 146.5 159.508L147 163.5C144.218 164.126 141.323 164.167 138.501 163.606C135.041 162.918 131.826 161.351 129.161 159.067L132 156.228C134.098 157.959 136.598 159.149 139.281 159.683Z" fill="#FF8A00"/>
<path d="M226 136C215.015 136 205.828 143.702 203.545 154H206.63C208.85 145.374 216.681 139 226 139C231.338 139 236.188 141.092 239.775 144.5L242.023 142.5C237.882 138.477 232.23 136 226 136Z" fill="#FF8A00"/>
<path d="M309 33C295.209 33 281.982 38.4786 272.23 48.2304C266.411 54.0501 262.113 61.1072 259.593 68.7832L256.795 67.6912C259.467 59.6328 263.993 52.225 270.109 46.1091C280.424 35.7946 294.413 30 309 30C314.716 30 320.341 30.8898 325.688 32.5928L324.255 35.2878C319.356 33.7844 314.218 33 309 33Z" fill="#FF8A00"/>
<path fill-rule="evenodd" clip-rule="evenodd" d="M352 73C364.703 73 375 62.7025 375 50C375 37.2975 364.703 27 352 27C339.297 27 329 37.2975 329 50C329 62.7025 339.297 73 352 73ZM352 76C366.359 76 378 64.3594 378 50C378 35.6406 366.359 24 352 24C337.641 24 326 35.6406 326 50C326 64.3594 337.641 76 352 76Z" fill="#FF8A00"/>
<path d="M379 110C390.598 110 400 100.598 400 89C400 77.402 390.598 68 379 68C369.856 68 362.078 73.8437 359.195 82L356.366 81C359.66 71.6785 368.55 65 379 65C392.255 65 403 75.7452 403 89C403 102.255 392.255 113 379 113C377.462 113 375.958 112.855 374.5 112.579L376 109.787C376.98 109.927 377.981 110 379 110Z" fill="#FF8A00"/>
<path d="M352.723 104H349.343C342.82 116.107 331.195 125.059 317.347 127.978L317.743 130.961C333.103 127.796 345.915 117.657 352.723 104Z" fill="#FF8A00"/>
<path d="M294 108.857C298.07 110.869 302.653 112 307.5 112C308.417 112 309.325 111.96 310.222 111.88L309.799 108.905C309.041 108.968 308.274 109 307.5 109C302.999 109 298.75 107.919 295 106.001L294 108.857Z" fill="#FF8A00"/>
<path d="M291.061 170.061L283.061 178.061M298.5 155L298.5 142" stroke="#FF8A00" stroke-width="3"/>
<path fill-rule="evenodd" clip-rule="evenodd" d="M203.5 48V68H200.5V48H203.5ZM236 53V63H233V53H236ZM248.185 82.7594L239.685 77.2594L241.315 74.7406L249.815 80.2406L248.185 82.7594Z" fill="#FF8A00"/>
<path d="M126.008 143C125.97 144.241 126.072 145.489 126.317 146.719C126.874 149.518 128.146 152.118 130 154.27L127.073 157C124.713 154.304 123.096 151.029 122.394 147.499C122.098 146.011 121.969 144.502 122.006 143H126.008Z" fill="#FFF500"/>
<path d="M100.807 50.1411C106.674 48.3614 112.977 48.671 118.641 51.0172C124.305 53.3634 128.981 57.601 131.871 63.008C134.761 68.415 135.687 74.6568 134.491 80.6699C133.295 86.683 129.739 92.1106 125 96C120.261 99.8894 112.631 101 106.5 101L108 97.5C112.487 97.0996 118.994 95.8773 122.5 93C126.524 89.6977 129.552 84.995 130.568 79.8895C131.583 74.7841 130.797 69.4844 128.343 64.8936C125.889 60.3027 121.92 56.7048 117.11 54.7127C112.301 52.7207 106.95 52.4578 101.969 53.9688C96.9872 55.4799 92.684 58.6715 89.7919 62.9997C86.8999 67.3279 85.5981 72.525 86.1083 77.7054C86.5529 82.2191 89.1103 87.5441 92 91L89.7617 94.2383C85.4265 89.9031 82.7285 84.1988 82.1276 78.0974C81.5267 71.9961 83.0599 65.875 86.4661 60.7774C89.8722 55.6797 94.9405 51.9208 100.807 50.1411Z" fill="#FFF500"/>
<path d="M226 179C237.046 179 246 170.046 246 159C246 158.495 245.981 157.995 245.945 157.5L248.806 156C248.934 156.982 249 157.983 249 159C249 171.703 238.703 182 226 182C213.297 182 203 171.703 203 159H206C206 170.046 214.954 179 226 179Z" fill="#FFF500"/>
<path d="M309 53C313.202 53 317.363 53.8277 321.246 55.4359L321 52.1214C317.158 50.7193 313.097 50 309 50C304.404 50 299.852 50.9053 295.606 52.6642C291.36 54.4231 287.501 57.0012 284.251 60.2513C281.001 63.5013 278.423 67.3597 276.664 71.6061C275.289 74.9258 274.436 78.4318 274.129 82H277.141C277.44 78.8264 278.212 75.7095 279.436 72.7541C281.044 68.8717 283.401 65.3441 286.373 62.3726C289.344 59.4011 292.872 57.044 296.754 55.4359C300.637 53.8277 304.798 53 309 53Z" fill="#FFF500"/>
<path d="M342.615 103.983H339C333.623 111.551 325.544 117.066 316.17 119.12L316.617 122.093C327.521 119.761 336.817 113.093 342.615 103.983Z" fill="#FFF500"/>
<path d="M289.772 118.735C295.263 121.465 301.452 123 308 123C309.225 123 310.437 122.946 311.635 122.841L311.266 119.862C310.19 119.953 309.1 120 308 120C301.944 120 296.219 118.583 291.138 116.063L289.772 118.735Z" fill="#FFF500"/>
<circle cx="298" cy="164" r="8.5" stroke="#FFF500" stroke-width="3"/>
<path d="M193 35V79M227 44V71.5M246.5 67.5L260 73" stroke="#00FF5C" stroke-width="3"/>
<path d="M133.333 129.781C130.62 131.594 128.505 134.171 127.256 137.186C126.934 137.963 126.674 138.76 126.475 139.57L122.619 138.5C122.862 137.534 123.176 136.583 123.56 135.655C125.112 131.909 127.74 128.707 131.111 126.455C132.033 125.839 132.999 125.301 134 124.845V129.358C133.775 129.493 133.552 129.634 133.333 129.781Z" fill="#00FF5C"/>
<path d="M246.299 139C241.172 134.047 234.192 131 226.5 131C215.848 131 206.561 136.844 201.67 145.5L199.071 144C204.481 134.447 214.738 128 226.5 128C235.06 128 242.823 131.414 248.5 136.956L246.299 139Z" fill="#00FF5C"/>
<path d="M308 43C302.484 43 297.023 44.0864 291.927 46.1971C286.832 48.3078 282.202 51.4015 278.302 55.3015C274.401 59.2016 271.308 63.8316 269.197 68.9273C267.47 73.0969 266.429 77.5114 266.107 82H263.1C263.426 77.117 264.547 72.313 266.425 67.7792C268.687 62.3196 272.002 57.3588 276.18 53.1802C280.359 49.0016 285.32 45.6869 290.779 43.4254C296.239 41.164 302.091 40 308 40C312.645 40 317.254 40.7191 321.665 42.1251L320.806 45C316.673 43.6768 312.354 43 308 43Z" fill="#00FF5C"/>
<path d="M355 50.5C355 52.433 353.433 54 351.5 54C349.567 54 348 52.433 348 50.5C348 48.567 349.567 47 351.5 47C353.433 47 355 48.567 355 50.5Z" fill="#00FF5C"/>
<path d="M384.534 44.4726C385.616 50.8417 384.801 57.3654 382.226 63.243L379.587 61.7876C381.842 56.5101 382.544 50.6745 381.576 44.9751C380.439 38.2843 377.068 32.1766 372.011 27.6496C366.955 23.1226 360.514 20.4437 353.738 20.0504C346.963 19.6572 340.255 21.5728 334.709 25.4845C329.163 29.3962 325.107 35.0727 323.204 41.587C321.301 48.1014 321.662 55.0686 324.23 61.3507C326.798 67.6328 331.42 72.8587 337.341 76.1748C342.385 78.9996 348.118 81.2964 353.846 80.9431L354.332 82.9175C347.931 83.371 341.512 81.949 335.875 78.7923C329.362 75.1446 324.278 69.3961 321.453 62.4858C318.629 55.5754 318.231 47.9115 320.324 40.7458C322.418 33.58 326.879 27.3358 332.98 23.0329C339.08 18.7301 346.459 16.6229 353.912 17.0555C361.365 17.488 368.451 20.4348 374.013 25.4146C379.574 30.3943 383.283 37.1127 384.534 44.4726Z" fill="#00FF5C"/>
<path d="M388 89C388 84.0294 383.971 80 379 80C374.897 80 371.435 82.7457 370.352 86.5L367.518 85.5C369.016 80.5799 373.59 77 379 77C385.627 77 391 82.3726 391 89C391 95.6274 385.627 101 379 101L380 97.9451C384.5 97.4476 388 93.6326 388 89Z" fill="#00FF5C"/>
<path d="M49 160C49 166.627 43.6274 172 37 172C30.3726 172 25 166.627 25 160C25 153.373 30.3726 148 37 148C43.6274 148 49 153.373 49 160Z" stroke="#00FF5C" stroke-width="6"/>
<path d="M315.8 84C315.8 87.7555 312.756 90.8 309 90.8C305.244 90.8 302.2 87.7555 302.2 84C302.2 80.2445 305.244 77.2 309 77.2C312.756 77.2 315.8 80.2445 315.8 84Z" fill="#00FF5C"/>
<path d="M43 160C43 163.314 40.3137 166 37 166C33.6863 166 31 163.314 31 160C31 156.686 33.6863 154 37 154C40.3137 154 43 156.686 43 160Z" fill="#00FF5C"/>
<circle cx="226.5" cy="159.5" r="13" stroke="#00FF5C" stroke-width="3"/>
<circle cx="297.5" cy="163.5" r="20.5" stroke="#00FF5C" stroke-width="6"/>
<path d="M328 97.5H367.441M367.441 97.5C369.403 93.6296 371.577 88.9816 373.5 84.5M367.441 97.5C354.987 122.072 341.112 134.957 314 151.5M327 158C340.679 150.183 345.055 146.976 354.5 138C360.236 142.697 362.901 145.165 373 156M140.5 110C146.513 99.0261 157.485 90.1372 167.5 85.5M140.5 110V90.5C140.5 87.7386 142.739 85.5 145.5 85.5H167.5M140.5 110V144M167.5 85.5H177M177 85.5C185.5 90 199.668 101.838 204.5 110M177 85.5H199.5C202.261 85.5 204.5 87.7386 204.5 90.5V110M204.5 110V144M99 69L109 73.4737M118 77.5L109 73.4737M244 116.5C249.225 111.035 250.938 109.091 252.5 107L275 124.5M376 163.5L388 152C381.038 144.157 377.141 139.71 365 129C374.414 117.142 378.296 109.499 384 95L373.5 84.5M109 73.4737C105.297 82.1464 103.103 88.7629 99.655 95.5M46 153.5C56.0865 147.28 59.8078 143.967 67 137.134M58.5 92C58.5 92 67.666 101.704 72.5 105M115 141C111.116 137.002 109.924 135.693 106.088 132M140.5 144H204.5M140.5 144V155M204.5 144V155.5M258 70.5C255.804 76.7515 253.093 82.0463 249.83 87.5M249.83 87.5C243.438 98.1855 234.924 107.562 224 116.5M249.83 87.5H293.5C281 124 268.5 138 239 154.5M322 84.5H373.5M67 137.134C74.0376 125.235 75.9017 121.269 72.5 105M67 137.134C84.1875 127.361 99.5 125.488 106.088 132M99.655 95.5C90.2631 102.624 85.6041 106.419 72.5 105M99.655 95.5C97.1981 112.198 98.5 124.5 106.088 132" stroke="#00FF5C" stroke-width="7"/>
</svg>
