<svg version="1.1" id="Layer_1" xmlns="http://www.w3.org/2000/svg" xmlns:xlink="http://www.w3.org/1999/xlink" x="0px" y="0px"
	 width="100%" viewBox="0 0 248 248" enable-background="new 0 0 248 248" xml:space="preserve">
<path fill="#FFFFFF" opacity="1.000000" stroke="none" 
	d="
M1.000000,91.000000 
	C1.000000,61.833340 1.057070,33.166393 0.914889,4.500437 
	C0.900086,1.515903 1.517780,0.914171 4.500088,0.917990 
	C84.833275,1.020875 165.166656,1.020869 245.499832,0.918008 
	C248.481918,0.914189 249.085846,1.517608 249.082016,4.500044 
	C248.979126,84.833229 248.979141,165.166611 249.081985,245.499786 
	C249.085800,248.481750 248.482559,249.085846 245.500000,249.082016 
	C165.166824,248.979111 84.833443,248.979141 4.500253,249.081970 
	C1.518414,249.085800 0.910173,248.483261 0.916890,245.499969 
	C1.032459,194.166840 1.000000,142.833389 1.000000,91.000000 
z"/>
<path fill="#000000" opacity="1.000000" stroke="none" 
	d="
M152.595169,208.845505 
	C152.919327,212.791840 152.982605,216.454758 152.994263,220.117844 
	C153.009277,224.827499 150.921173,226.272476 146.372147,225.016266 
	C143.992935,224.359253 144.970581,222.550934 145.085709,221.390793 
	C145.414322,218.079468 144.591049,216.266693 140.883926,217.000183 
	C137.406082,217.688309 136.469574,215.918503 137.014282,212.887863 
	C137.640930,209.401382 135.910477,209.004608 132.891891,208.874008 
	C129.387482,208.722382 128.792236,210.065613 128.933838,213.118164 
	C129.109451,216.903595 130.255447,222.028107 128.320755,224.168625 
	C126.025635,226.707947 120.793488,224.539993 116.888191,225.049347 
	C113.371017,225.508057 112.475197,223.901291 113.015404,220.882996 
	C113.641273,217.386047 111.896782,217.007172 108.886887,216.874710 
	C105.380211,216.720428 104.469742,218.089874 105.015015,221.114777 
	C105.645973,224.615067 103.912956,225.080399 100.880707,225.067627 
	C88.932739,225.017273 89.059769,225.113129 88.918388,213.378632 
	C88.878601,210.076828 89.418289,208.261246 93.124031,209.000458 
	C96.626343,209.699066 97.246582,207.906067 97.054283,204.870667 
	C96.823013,201.219910 96.996529,197.543518 96.960754,193.407761 
	C98.083275,191.838516 99.590637,191.808563 101.035622,191.589188 
	C102.786812,191.323334 103.619987,190.287064 103.472916,188.541290 
	C103.382118,187.463516 102.785568,186.710754 101.656349,186.560089 
	C99.943863,186.331604 98.807625,186.991119 98.446587,188.764267 
	C98.188423,190.032196 98.275322,191.389526 97.275970,192.800140 
	C89.000000,192.876831 89.000000,192.876831 89.000000,184.684464 
	C89.000000,177.000000 89.000000,177.000626 96.725449,176.999786 
	C101.856888,176.999222 106.988335,176.996552 112.591270,176.960770 
	C114.161476,178.083298 114.191429,179.590652 114.410812,181.035629 
	C114.676674,182.786789 115.712906,183.620010 117.458687,183.472931 
	C118.536461,183.382126 119.289261,182.785583 119.439919,181.656372 
	C119.668411,179.943924 119.008949,178.807663 117.235794,178.446579 
	C115.967880,178.188370 114.610535,178.275345 113.199921,177.276001 
	C112.945236,174.658569 112.969971,172.248413 112.960716,169.387787 
	C114.083275,167.838516 115.590637,167.808563 117.035629,167.589203 
	C118.786812,167.323349 119.619987,166.287064 119.472908,164.541290 
	C119.382118,163.463516 118.785576,162.710739 117.656349,162.560089 
	C115.943863,162.331604 114.807632,162.991119 114.446594,164.764282 
	C114.188431,166.032196 114.275322,167.389526 113.275970,168.800140 
	C112.072174,169.053055 111.048477,168.865479 110.083839,169.028152 
	C106.095383,169.700806 104.174095,168.427856 104.981781,164.103317 
	C105.731094,160.091293 102.734055,161.209686 100.625961,160.972076 
	C97.980392,160.673843 96.778633,161.325378 96.918457,164.366318 
	C97.109726,168.525970 94.046608,170.368805 90.148262,169.007996 
	C88.752625,168.520813 89.098831,167.575867 89.002373,166.665863 
	C87.578552,153.233398 87.578804,153.112686 101.283211,153.091003 
	C104.423660,153.086044 105.379745,152.260406 105.053574,149.216599 
	C104.789375,146.751053 105.257629,144.201401 104.941078,141.748398 
	C104.435829,137.833023 105.835655,136.611053 109.749977,136.881439 
	C112.309570,137.058243 113.286888,137.571823 113.050987,140.236267 
	C112.817291,142.875656 113.406395,145.629578 112.916046,148.195984 
	C111.870148,153.670044 115.333374,153.055389 118.691917,153.034698 
	C120.335220,153.024567 121.360306,152.615799 120.980598,150.820496 
	C119.571861,144.159912 123.930580,144.683029 128.605133,144.960754 
	C131.224350,147.897568 130.426071,151.337997 130.414169,154.582123 
	C130.400879,158.199020 131.847885,159.806839 135.463760,159.545227 
	C136.948914,159.437775 138.448608,159.509384 139.941574,159.497849 
	C142.459442,159.478394 143.503250,158.151215 143.505676,155.747452 
	C143.507019,154.420609 143.437744,153.085495 143.547058,151.767380 
	C143.860977,147.982025 142.296661,146.295227 138.388107,146.414017 
	C135.451874,146.503235 132.396393,146.997055 129.253784,145.295349 
	C128.946762,144.077576 129.128647,143.061264 128.972763,142.099731 
	C128.341690,138.207260 129.455185,136.112808 133.827789,136.990387 
	C136.511307,137.528976 137.112335,136.216415 137.053345,133.716003 
	C136.897369,127.105545 137.003525,120.488899 137.346130,113.132156 
	C139.797180,111.507568 141.944031,111.656410 144.472351,112.331902 
	C145.039078,112.681442 145.237015,112.861053 145.632156,113.384529 
	C146.813797,117.123657 146.173264,120.612450 146.424713,124.049789 
	C146.551743,125.786324 146.824753,127.482269 149.140091,127.343475 
	C151.073318,127.227585 151.423019,125.731834 151.550720,124.176453 
	C151.819687,120.900215 151.258957,117.580299 152.497330,113.703522 
	C153.924606,113.050560 154.938477,113.143761 155.908646,112.979256 
	C159.843872,112.311974 161.882309,113.514664 161.006973,117.859093 
	C160.449051,120.628059 161.910309,121.007477 164.328659,121.056900 
	C176.925552,121.314354 177.260605,121.368813 176.871017,109.289902 
	C176.645401,102.293663 181.421173,105.852531 184.856079,105.290840 
	C186.030273,109.344414 186.962631,112.662399 192.248260,112.211273 
	C192.809418,112.488495 193.019867,112.634918 193.451508,113.104881 
	C194.467834,115.523514 194.362289,117.659447 193.825317,120.188782 
	C193.540375,120.789185 193.392212,121.009567 192.922668,121.456955 
	C187.559219,121.420418 186.131134,124.914032 184.859985,129.126770 
	C179.651001,131.468979 174.480530,130.220566 169.428543,130.375504 
	C165.713135,130.489471 162.501907,130.500504 161.938202,135.338562 
	C161.660507,137.721985 159.336792,138.037903 157.397369,138.508636 
	C155.805115,138.895142 154.583664,139.655701 154.907288,141.554718 
	C155.197449,143.257477 156.649734,143.337448 157.962280,143.470459 
	C161.235931,143.802185 164.576782,143.112885 168.122009,144.307404 
	C169.938431,145.575668 170.170074,147.214005 170.394791,148.864288 
	C170.629135,150.585159 171.567276,151.578461 173.369965,151.459686 
	C174.721100,151.370682 175.451294,150.570206 175.464264,149.195633 
	C175.481842,147.331329 174.323669,146.605347 172.676788,146.364029 
	C171.371292,146.172775 170.046097,146.028473 168.780182,144.743103 
	C166.615997,137.770187 167.966599,135.789658 174.606506,135.546463 
	C175.437515,135.516022 176.280167,135.437897 177.099335,135.535843 
	C181.296753,136.037704 183.794312,134.404037 184.437195,129.674866 
	C186.553726,127.233231 188.954788,127.613686 191.747894,127.988907 
	C192.417984,128.239883 192.669052,128.372543 193.208527,128.808350 
	C195.345200,135.575211 195.345245,135.570938 202.293732,135.638290 
	C204.080154,135.655594 205.878540,135.552246 208.276123,136.492950 
	C208.949432,138.094513 209.141968,139.283798 208.968994,140.417282 
	C208.426758,143.970505 209.484146,145.823532 213.403580,145.002090 
	C216.753159,144.300064 217.224091,146.082199 217.061295,148.895721 
	C216.921890,151.304733 217.338013,153.706497 213.615799,153.014648 
	C210.171921,152.374588 208.142288,153.361282 208.995941,157.369247 
	C209.698929,160.669815 207.998627,161.119247 205.138321,161.081894 
	C201.210312,161.030594 195.658707,159.256241 193.757523,161.786316 
	C191.738358,164.473358 193.270584,169.720825 192.944138,173.825699 
	C192.722397,176.613953 193.861633,177.186264 196.334183,177.043854 
	C199.484924,176.862396 202.669724,177.194702 205.810516,176.941635 
	C208.569138,176.719376 209.188690,177.818619 209.046417,180.319397 
	C208.857712,183.636215 209.138016,186.979599 208.952637,190.296799 
	C208.825577,192.570328 209.688721,193.133133 211.804489,193.040970 
	C215.291824,192.889069 218.803772,193.190582 222.281052,192.949844 
	C226.221222,192.677063 224.817703,195.456985 224.968216,197.280258 
	C225.127472,199.209305 225.554977,201.642303 222.234741,200.980026 
	C217.171341,199.970078 216.429565,202.684586 216.972672,206.758987 
	C217.147003,208.066788 217.133072,209.433365 216.975662,210.745529 
	C216.449631,215.130646 217.079041,218.169846 222.744354,217.060165 
	C225.987793,216.424850 225.043579,219.222839 224.911133,220.717422 
	C224.772385,222.282700 226.492691,225.046188 222.780533,225.013947 
	C216.292252,224.957596 209.801453,224.914642 203.315292,225.044922 
	C201.111740,225.089203 200.686783,224.019974 201.023117,222.321762 
	C201.994446,217.417038 199.506622,216.768158 195.327515,216.912186 
	C186.852341,217.204285 178.359924,216.996246 169.473907,217.028534 
	C168.887344,209.000000 168.887344,208.998535 160.646301,209.000916 
	C158.324265,209.001587 156.002228,209.013519 153.212158,209.150558 
	C150.622849,203.192139 151.203018,201.710007 156.800980,199.482727 
	C158.147522,198.946960 159.248795,198.404129 159.165802,196.745895 
	C159.077545,194.982773 157.705734,194.594070 156.382919,194.447861 
	C152.505310,194.019241 151.564545,191.512955 151.566757,188.134399 
	C151.569489,183.970474 151.444519,179.801407 151.582809,175.643387 
	C151.712631,171.739258 149.980988,170.397598 146.192108,170.389664 
	C139.462280,170.375580 139.272186,170.337021 137.939545,176.005127 
	C137.657379,176.628067 137.512314,176.861710 137.046722,177.353668 
	C130.466629,179.396698 130.461639,179.396683 130.446747,185.945511 
	C130.439957,188.927887 130.353851,191.913773 130.487854,194.891434 
	C130.565308,196.612076 130.153687,198.870300 132.806778,199.091034 
	C135.084747,199.280533 135.367767,197.342056 135.678299,195.736496 
	C136.206940,193.003052 137.879135,191.841492 140.543747,191.723465 
	C144.116577,191.565186 146.290253,192.926743 146.375046,196.775696 
	C146.400589,197.935043 146.605515,199.123276 146.413162,200.248810 
	C145.594482,205.039383 147.559525,207.767441 152.595169,208.845505 
z"/>
<path fill="#000000" opacity="1.000000" stroke="none" 
	d="
M25.000000,30.111214 
	C24.407295,26.130486 25.405142,24.814157 29.390390,24.884714 
	C45.216866,25.164923 61.051868,25.074078 76.882088,24.935595 
	C79.935562,24.908882 81.139885,25.412045 81.093582,28.895473 
	C80.880959,44.890728 80.925453,60.891045 81.065186,76.887901 
	C81.091949,79.951866 80.570610,81.138680 77.098724,81.092926 
	C61.103424,80.882118 45.101814,80.865257 29.107176,81.099983 
	C25.368107,81.154846 24.887688,79.862343 24.924103,76.593346 
	C25.094872,61.263771 25.000002,45.931232 25.000000,30.111214 
z"/>
<path fill="#000000" opacity="1.000000" stroke="none" 
	d="
M81.000000,176.067108 
	C80.999992,191.391327 80.884323,206.223801 81.087624,221.051880 
	C81.133957,224.431320 80.085991,225.102463 76.934982,225.071793 
	C60.939156,224.915955 44.939644,224.890961 28.944715,225.087723 
	C25.559601,225.129364 24.898262,224.076523 24.928675,220.931717 
	C25.083363,204.935867 25.109680,188.936340 24.911860,172.941437 
	C24.869915,169.549866 25.932594,168.896317 29.071617,168.928955 
	C44.234131,169.086700 59.399185,168.999969 74.563339,169.000031 
	C80.999336,169.000061 80.999336,169.000168 81.000000,176.067108 
z"/>
<path fill="#000000" opacity="1.000000" stroke="none" 
	d="
M225.000000,45.000301 
	C224.999985,56.164455 224.901260,66.830254 225.066223,77.491974 
	C225.109924,80.316849 224.321915,81.088394 221.495453,81.065231 
	C205.166885,80.931404 188.836121,80.931763 172.507538,81.064987 
	C169.685699,81.088013 168.911606,80.321922 168.934769,77.495461 
	C169.068588,61.166889 169.068222,44.836109 168.934998,28.507532 
	C168.911972,25.685688 169.678101,24.911600 172.504547,24.934763 
	C188.833115,25.068583 205.163879,25.068232 221.492462,24.935009 
	C224.314301,24.911987 225.184326,25.668673 225.064590,28.506742 
	C224.840027,33.829399 224.999985,39.168282 225.000000,45.000301 
z"/>
<path fill="#000000" opacity="1.000000" stroke="none" 
	d="
M121.769226,89.525513 
	C121.050537,85.962730 121.008553,82.856331 121.003426,79.749863 
	C120.992256,72.989510 120.999939,72.989494 113.649178,73.132324 
	C112.541168,65.000008 112.541168,65.000008 120.700455,65.000000 
	C129.000000,64.999992 129.000000,64.999992 129.000000,56.800858 
	C129.000000,49.000008 129.000000,49.000008 136.698639,49.000000 
	C137.864349,49.000000 139.053040,48.851231 140.191544,49.027210 
	C143.973251,49.611744 145.795593,48.318829 144.998520,44.307671 
	C144.233444,40.457535 146.912918,40.714462 149.180679,41.052628 
	C152.822784,41.595734 153.046371,39.731937 153.100540,36.818153 
	C153.155502,33.862923 152.543716,32.375801 149.319397,32.993362 
	C145.944809,33.639706 144.853119,32.440445 144.841385,28.826139 
	C144.829697,25.229158 146.238571,24.930462 149.172729,24.940861 
	C160.999710,24.982786 161.000031,24.899183 161.000000,36.665718 
	C160.999985,44.992184 160.924683,53.319752 161.046738,61.644428 
	C161.082367,64.074181 160.672211,65.380424 157.841888,65.049278 
	C155.706238,64.799416 153.507553,64.864388 151.355240,65.028908 
	C147.189270,65.347343 143.781265,65.270050 144.921387,59.343327 
	C145.615250,55.736420 142.467407,57.190666 140.856323,57.061489 
	C139.076553,56.918793 136.737503,56.150341 136.942612,59.641335 
	C137.186371,63.790119 136.996536,67.964378 136.649384,72.881691 
	C130.576065,75.334846 130.576050,75.334846 130.409988,82.831871 
	C130.258270,89.681374 129.226578,90.609558 121.769226,89.525513 
z"/>
<path fill="#000000" opacity="1.000000" stroke="none" 
	d="
M208.800156,104.724030 
	C209.053070,105.925835 209.144989,106.940590 208.979294,107.911392 
	C208.305038,111.861801 209.534958,113.880562 213.869629,113.006104 
	C216.664856,112.442207 217.346909,113.938751 216.996994,116.342415 
	C216.510452,119.684494 217.195007,121.900215 221.307510,121.005318 
	C225.111069,120.177628 224.929413,122.560585 225.093552,125.268654 
	C225.282379,128.384201 224.326157,129.325912 221.247910,129.105835 
	C219.751617,128.998886 216.463882,127.576111 217.089340,131.203827 
	C218.254883,137.963959 214.036484,137.311920 209.382507,136.962860 
	C208.924164,136.930771 208.997574,136.999832 209.033813,137.034882 
	C208.238129,136.212280 207.756760,135.164291 207.642639,134.000351 
	C207.376251,131.283554 205.676361,130.579010 203.241470,130.460220 
	C200.006500,130.302399 196.652603,131.119339 193.250076,129.194885 
	C192.929962,128.930084 193.000031,129.000031 193.035034,129.035034 
	C191.253128,126.747559 191.169769,124.287201 192.777557,121.322807 
	C193.070053,120.930016 193.000000,121.000000 192.964966,121.034988 
	C193.739151,120.148476 194.834793,119.886345 195.982513,119.732162 
	C197.633041,119.510452 199.388702,119.317024 199.435699,117.101303 
	C199.489716,114.555908 197.479233,114.494568 195.701416,114.223175 
	C194.890640,114.099411 194.108780,113.900742 193.181854,113.166885 
	C192.929947,112.930023 192.999985,113.000000 193.035004,113.035004 
	C192.847733,112.837547 192.506561,112.603600 192.481369,112.328362 
	C192.090485,108.056343 189.535065,106.005020 185.215851,105.183838 
	C184.929993,104.930000 185.000183,105.002419 185.034744,105.039139 
	C185.048111,102.661537 185.026932,100.247215 184.971527,97.453079 
	C185.932678,97.048843 186.954788,96.865562 187.918762,97.027771 
	C191.895325,97.696915 193.875290,96.430641 193.005096,92.115700 
	C192.433731,89.282524 193.985596,88.925507 196.365265,88.956711 
	C204.831696,89.067772 213.305725,89.172142 221.765686,88.913429 
	C225.040344,88.813293 225.199020,90.311691 225.027527,92.750145 
	C224.872513,94.954178 225.729004,97.738525 221.775391,97.006401 
	C217.996048,96.306549 216.629868,97.689018 216.907700,101.696877 
	C217.354156,108.137642 212.118393,103.650116 209.394501,105.039307 
	C207.838516,103.916725 207.808563,102.409363 207.589203,100.964371 
	C207.323349,99.213188 206.287064,98.380020 204.541290,98.527092 
	C203.463516,98.617882 202.710739,99.214432 202.560089,100.343651 
	C202.331604,102.056137 202.991119,103.192368 204.764282,103.553413 
	C206.032196,103.811577 207.389526,103.724678 208.800156,104.724030 
z"/>
<path fill="#000000" opacity="1.000000" stroke="none" 
	d="
M104.800011,48.724136 
	C104.878204,57.000015 104.878204,57.000015 96.612488,57.000000 
	C88.999992,56.999985 88.999992,56.999985 89.000000,49.135273 
	C89.000008,42.317860 89.197449,35.492214 88.913658,28.686636 
	C88.779190,25.462015 89.845276,24.805897 92.816032,24.931124 
	C98.459473,25.169012 104.125305,25.143692 109.771217,24.937193 
	C112.436966,24.839691 113.286644,25.692734 113.041481,28.275658 
	C112.838142,30.417971 113.187927,32.614925 112.960732,34.752388 
	C112.493019,39.152557 113.114616,42.265556 118.739922,41.026302 
	C120.966438,40.535801 121.062233,42.070080 121.018501,43.729263 
	C120.948433,46.387867 120.658279,49.104305 121.073120,51.698437 
	C121.867775,56.667675 119.466125,57.530148 115.303070,57.060226 
	C113.702805,56.879589 112.641251,56.619213 113.019127,54.821598 
	C114.417389,48.169876 110.098320,48.650749 105.394333,49.039398 
	C103.838631,47.916759 103.808502,46.409470 103.589203,44.964447 
	C103.323441,43.213276 102.287216,42.380024 100.541412,42.527069 
	C99.463631,42.617847 98.710785,43.214310 98.560097,44.343533 
	C98.331573,46.055996 98.991081,47.192280 100.764198,47.553391 
	C102.032112,47.811611 103.389450,47.724720 104.800011,48.724136 
z"/>
<path fill="#000000" opacity="1.000000" stroke="none" 
	d="
M41.513680,136.219162 
	C35.810547,136.781815 28.800091,139.203430 25.815287,136.012711 
	C23.214369,133.232361 25.067522,126.257271 25.009552,121.135025 
	C24.962515,116.978882 25.243933,112.802780 24.922102,108.671173 
	C24.668980,105.421631 25.887356,104.532326 28.824173,104.989555 
	C31.734550,105.442680 33.180202,104.804230 33.157738,101.192810 
	C33.135521,97.622215 32.120579,96.331024 28.713463,97.009445 
	C24.909750,97.766823 25.065805,95.464378 24.904238,92.733589 
	C24.718794,89.599220 25.710722,88.912788 28.759676,88.915474 
	C40.922344,88.926193 40.977478,88.805794 40.958633,100.715073 
	C40.954300,103.455696 40.864845,105.288269 44.706841,105.155289 
	C48.081020,105.038498 49.443237,104.434433 49.056564,100.810303 
	C48.342056,94.113647 53.675819,98.100044 56.540688,96.971817 
	C56.949585,102.001442 56.972092,107.065079 56.668213,112.871887 
	C51.007069,115.195946 45.542339,114.129730 40.142593,114.377640 
	C37.196758,114.512894 34.434025,114.425285 34.409107,118.592941 
	C34.366341,125.747482 34.257484,127.893616 39.602276,127.940659 
	C40.246719,128.163773 40.496056,128.281876 41.061287,128.673111 
	C42.543289,131.049500 42.379856,133.270462 41.513680,136.219162 
z"/>
<path fill="#000000" opacity="1.000000" stroke="none" 
	d="
M89.028473,128.540344 
	C82.114563,128.951202 75.166351,128.967056 68.218262,129.006744 
	C66.659248,129.015640 64.476135,128.487762 65.034927,131.242676 
	C66.401024,137.977554 62.006386,137.290787 57.076241,136.596985 
	C55.078640,128.684631 54.737553,121.177254 56.783527,113.308853 
	C57.069942,112.930061 56.997536,113.000206 56.960808,113.034729 
	C57.918861,113.046165 58.934040,113.143425 59.904858,112.978912 
	C63.844273,112.311333 65.883736,113.516441 65.006638,117.863449 
	C64.444725,120.648338 65.914040,121.188087 68.341751,121.039841 
	C71.151955,120.868240 74.010330,120.743111 76.793953,121.064301 
	C80.359306,121.475685 81.191055,120.167603 81.134224,116.727791 
	C81.083458,113.655441 80.321144,112.424271 77.259575,112.999863 
	C73.816734,113.647141 72.881126,112.320290 72.843262,108.795349 
	C72.804321,105.169701 74.276077,104.798088 77.179489,104.953560 
	C80.819450,105.148468 84.477592,105.003807 88.527542,104.971817 
	C88.951424,105.764305 89.103149,106.610466 88.978546,107.413765 
	C88.320908,111.653610 89.576180,113.951309 94.337929,113.011986 
	C97.190948,112.449188 97.394150,114.430466 96.924248,116.277161 
	C96.505615,117.922302 98.807724,121.533051 94.767395,120.889984 
	C87.986588,119.810745 88.721909,124.006363 89.028473,128.540344 
z"/>
<path fill="#000000" opacity="1.000000" stroke="none" 
	d="
M137.039185,112.965584 
	C133.287674,112.954079 129.474091,113.259140 125.718277,112.921593 
	C121.870850,112.575821 120.290352,113.795853 120.979218,117.684456 
	C121.120644,118.482742 120.996162,119.328140 121.028534,120.539223 
	C120.068993,120.951080 119.049004,121.132759 118.085907,120.972481 
	C114.137383,120.315399 112.151894,121.526962 112.985565,125.866470 
	C113.751671,129.854309 110.814247,128.817856 108.675148,129.030426 
	C106.106186,129.285736 104.563354,128.828690 104.950073,125.696213 
	C105.212143,123.573441 105.181458,121.373444 104.961998,119.240891 
	C104.513504,114.882675 105.074852,111.713539 110.711205,112.974365 
	C112.322784,113.334869 113.170097,112.637718 113.026161,110.817276 
	C112.895912,109.169975 113.003036,107.503906 113.307693,105.133369 
	C118.241974,104.343369 120.306747,101.796425 120.642624,97.018280 
	C121.121246,96.519501 121.361816,96.359756 122.019638,96.038200 
	C126.226051,95.183929 130.038116,95.356331 133.842072,95.650749 
	C136.239243,95.836281 138.041962,96.993050 138.243118,99.557816 
	C138.577744,103.824059 139.291473,108.141464 137.219666,112.683472 
	C136.930115,113.070099 137.002472,113.000046 137.039185,112.965584 
z"/>
<path fill="#000000" opacity="1.000000" stroke="none" 
	d="
M152.454376,89.790695 
	C161.000000,88.882401 161.000107,88.882401 160.999908,96.816147 
	C160.999863,98.802185 160.908539,100.793556 161.025330,102.772667 
	C161.128128,104.514450 160.434311,105.335480 158.753799,104.978943 
	C152.019592,103.550209 152.724564,108.013275 152.962891,112.617477 
	C152.930817,113.075829 152.999863,113.002403 153.034882,112.966156 
	C150.747498,114.746849 148.287216,114.830154 145.322891,113.222412 
	C144.930115,112.929901 145.000000,113.000000 145.034943,113.035049 
	C142.349365,108.415184 143.576630,103.465324 144.084030,98.602425 
	C144.257324,96.941544 145.687042,96.040215 147.239975,95.869705 
	C150.532013,95.508224 151.603134,93.354546 152.454376,89.790695 
z"/>
<path fill="#000000" opacity="1.000000" stroke="none" 
	d="
M88.957146,129.034317 
	C97.000000,128.894089 97.000000,128.894089 97.000000,136.858841 
	C97.000000,145.000000 97.000000,145.000015 88.686752,144.999969 
	C84.369064,144.999954 80.039558,144.801605 75.737175,145.058197 
	C71.817566,145.291946 73.155617,142.586151 73.032867,140.750092 
	C72.906685,138.862717 72.341461,136.629868 75.735779,136.946884 
	C78.534462,137.208267 81.402687,136.760071 84.193810,137.058823 
	C87.950996,137.460999 89.776085,136.367294 89.021851,132.331924 
	C88.871948,131.529907 89.003067,130.675369 89.033669,129.385895 
	C89.062737,128.926727 88.993813,128.999924 88.957146,129.034317 
z"/>
<path fill="#000000" opacity="1.000000" stroke="none" 
	d="
M57.034691,97.043320 
	C56.893288,89.000000 56.893288,88.999969 64.840385,89.000015 
	C69.318909,89.000038 73.808479,89.194862 78.272644,88.941711 
	C82.190315,88.719559 80.841431,91.422394 80.966331,93.252106 
	C81.094917,95.135620 81.655823,97.194504 78.271332,97.072227 
	C71.479424,96.826851 64.672501,96.996925 57.399429,96.966675 
	C56.927082,96.937813 57.000313,97.006660 57.034691,97.043320 
z"/>
<path fill="#000000" opacity="1.000000" stroke="none" 
	d="
M89.034805,105.043427 
	C88.892159,97.000000 88.892159,96.999359 96.769867,97.000229 
	C101.888405,97.000801 107.006943,97.003578 112.883255,97.364975 
	C114.526817,99.974022 114.637527,102.204117 113.202171,104.736206 
	C112.929939,105.069984 113.002304,104.999954 113.039017,104.965515 
	C105.341103,104.952560 97.606476,104.974052 89.399521,104.966736 
	C88.927200,104.937920 89.000427,105.006767 89.034805,105.043427 
z"/>
<path fill="#000000" opacity="1.000000" stroke="none" 
	d="
M56.965187,136.960785 
	C56.951828,139.338394 56.973045,141.752716 57.028519,144.546890 
	C56.075676,144.951141 55.065002,145.125015 54.105629,144.973694 
	C50.277100,144.369858 48.561592,145.346146 48.883026,149.787811 
	C49.342285,156.134018 44.101330,151.635422 41.459221,153.028137 
	C41.050194,147.996811 41.027557,142.931549 41.036892,137.395172 
	C41.068863,136.924088 40.999947,136.997513 40.964920,137.033691 
	C45.948631,134.387436 51.095825,135.029770 56.672028,136.773499 
	C57.069935,137.069946 56.999767,136.997498 56.965187,136.960785 
z"/>
<path fill="#000000" opacity="1.000000" stroke="none" 
	d="
M129.002502,25.000000 
	C136.999985,25.000055 136.999985,25.000055 137.000000,32.379417 
	C137.000000,33.701942 137.002945,35.024475 136.999451,36.346992 
	C136.987900,40.721272 134.444885,42.455582 130.238174,40.970036 
	C127.883232,40.138420 128.994400,38.128216 129.093674,36.783699 
	C129.313232,33.809566 128.507187,32.396187 125.330673,32.992203 
	C122.046204,33.608471 120.914856,32.530426 120.831329,28.899231 
	C120.738205,24.850008 122.615822,24.681562 125.545670,24.983992 
	C126.527107,25.085297 127.527802,25.000000 129.002502,25.000000 
z"/>
<path fill="#000000" opacity="1.000000" stroke="none" 
	d="
M136.960785,73.034622 
	C137.911804,73.046104 138.917526,73.135231 139.884094,72.980240 
	C143.697678,72.368713 145.447418,73.321411 145.116440,77.782219 
	C144.645157,84.133980 149.905563,79.626976 152.540359,80.971512 
	C152.949463,83.349266 152.972229,85.761299 152.962860,88.624664 
	C152.930725,89.075989 152.999863,89.002548 153.034943,88.966324 
	C148.447922,91.756279 143.499420,90.667145 138.631775,90.022697 
	C136.765686,89.775650 135.858200,88.194000 135.719727,86.442253 
	C135.383408,82.187569 134.655228,77.886688 136.765198,73.339401 
	C137.069916,72.929970 136.997498,73.000092 136.960785,73.034622 
z"/>
<path fill="#000000" opacity="1.000000" stroke="none" 
	d="
M64.867653,153.649292 
	C68.547012,153.187302 72.349594,153.046173 76.153137,153.012085 
	C80.827568,152.970184 82.270187,155.081146 81.033340,159.619263 
	C80.660591,160.986893 79.894554,160.991119 78.904686,160.995056 
	C76.582581,161.004288 74.260414,160.999802 71.938278,160.999893 
	C65.010490,161.000153 65.010490,160.999954 64.867653,153.649292 
z"/>
<path fill="#000000" opacity="1.000000" stroke="none" 
	d="
M40.965229,152.956573 
	C41.107174,160.999985 41.107174,160.999985 33.184616,161.000000 
	C32.025387,161.000000 30.866154,161.002243 29.706930,160.999603 
	C25.260126,160.989456 23.667521,158.573700 24.976112,154.257019 
	C25.510380,152.494629 26.705540,153.042358 27.710333,153.027130 
	C31.849464,152.964386 35.990131,153.003082 40.601532,153.033295 
	C41.072826,153.062088 40.999607,152.993225 40.965229,152.956573 
z"/>
<path fill="#000000" opacity="1.000000" stroke="none" 
	d="
M97.028412,80.527374 
	C88.999992,81.112778 88.999992,81.112778 89.000000,73.174324 
	C89.000000,72.015587 88.997696,70.856834 89.000420,69.698105 
	C89.010834,65.262573 91.439522,63.664932 95.747200,64.976677 
	C97.508263,65.512939 96.957413,66.709259 96.972656,67.713104 
	C97.035477,71.850479 96.996117,75.989403 97.028412,80.527374 
z"/>
<path fill="#000000" opacity="1.000000" stroke="none" 
	d="
M168.965607,216.957092 
	C168.954132,218.241730 169.119461,219.580414 168.960876,220.879562 
	C168.794479,222.242523 169.917068,224.339844 168.122864,224.822296 
	C166.121460,225.360489 163.433655,225.676544 161.825928,224.743301 
	C159.925858,223.640335 161.245407,220.821930 161.021423,218.765015 
	C160.783279,216.577682 162.453568,217.035034 163.695251,217.008255 
	C165.181824,216.976166 166.669678,217.003204 168.615082,217.033661 
	C169.073196,217.062698 169.000000,216.993759 168.965607,216.957092 
z"/>
<path fill="#000000" opacity="1.000000" stroke="none" 
	d="
M96.956879,81.034622 
	C99.335762,81.047943 101.751305,81.026840 104.546722,80.971443 
	C104.951057,82.253708 105.116913,83.587273 104.961197,84.882156 
	C104.797470,86.243698 105.909515,88.336800 104.135880,88.820724 
	C102.144806,89.363976 99.875603,89.089607 97.757736,88.873581 
	C96.823624,88.778313 97.006439,87.584404 97.003700,86.783363 
	C96.998070,85.136635 97.003647,83.489876 97.033554,81.385056 
	C97.062492,80.926979 96.993538,81.000198 96.956879,81.034622 
z"/>
<path fill="#000000" opacity="1.000000" stroke="none" 
	d="
M153.034332,81.042831 
	C153.045822,79.758194 152.880508,78.419502 153.039139,77.120361 
	C153.205551,75.757408 152.082932,73.660126 153.877197,73.177658 
	C155.878616,72.639511 158.566437,72.323441 160.174118,73.256721 
	C162.074112,74.359695 160.754608,77.178108 160.978546,79.235062 
	C161.216675,81.422440 159.546310,80.964920 158.304688,80.991737 
	C156.818100,81.023849 155.330261,80.996803 153.384827,80.966309 
	C152.926712,80.937233 152.999924,81.006157 153.034332,81.042831 
z"/>
<path fill="#000000" opacity="1.000000" stroke="none" 
	d="
M113.034592,97.039078 
	C113.047653,96.748848 113.010696,96.422081 113.006989,96.094940 
	C112.926559,88.993484 112.927269,88.993477 120.617966,89.037109 
	C121.075813,89.069160 121.002396,89.000099 120.966171,88.965065 
	C122.746834,91.252457 122.830193,93.712769 121.222412,96.677109 
	C120.929901,97.069885 121.000015,96.999985 121.035004,96.964966 
	C118.747528,98.746857 116.287170,98.830223 113.322762,97.222458 
	C112.929962,96.929962 113.000069,97.002373 113.034592,97.039078 
z"/>
<path fill="#000000" opacity="1.000000" stroke="none" 
	d="
M56.957165,145.034317 
	C57.085724,145.057236 57.250832,145.037994 57.416203,145.035400 
	C65.026672,144.915695 65.026672,144.915848 64.862122,152.799423 
	C64.744003,153.280975 64.817444,153.198639 64.848145,153.163818 
	C64.558319,153.087799 64.238411,153.016357 63.917171,153.009811 
	C56.994186,152.868622 56.994156,152.870041 57.033703,145.384277 
	C57.062771,144.926727 56.993832,144.999924 56.957165,145.034317 
z"/>
<path fill="#000000" opacity="1.000000" stroke="none" 
	d="
M120.957230,121.034225 
	C122.241875,121.045753 123.580566,120.880478 124.879707,121.039124 
	C126.242645,121.205559 128.339920,120.082901 128.822357,121.877258 
	C129.360458,123.878693 129.676544,126.566521 128.743240,128.174164 
	C127.640251,130.074081 124.821823,128.754654 122.764854,128.978546 
	C120.577408,129.216675 121.035118,127.546150 121.008255,126.304611 
	C120.976089,124.818039 121.003197,123.330185 121.033730,121.384750 
	C121.062828,120.926620 120.993896,120.999825 120.957230,121.034225 
z"/>
<path fill="#000000" opacity="1.000000" stroke="none" 
	d="
M185.042908,96.965668 
	C183.758270,96.954170 182.419586,97.119484 181.120438,96.960884 
	C179.757462,96.794472 177.660141,97.917061 177.177673,96.122856 
	C176.639481,94.121452 176.323456,91.433640 177.256714,89.825920 
	C178.359680,87.925880 181.178101,89.245377 183.235031,89.021439 
	C185.422379,88.783302 184.964935,90.453629 184.991745,91.695290 
	C185.023834,93.181870 184.996796,94.669724 184.966339,96.615143 
	C184.937302,97.073257 185.006241,97.000061 185.042908,96.965668 
z"/>
<path fill="#000000" opacity="1.000000" stroke="none" 
	d="
M105.034203,81.042755 
	C105.057144,80.914185 105.037926,80.749084 105.035332,80.583717 
	C104.915840,72.973335 104.916008,72.973335 112.799316,73.137848 
	C113.280853,73.255943 113.198517,73.182495 113.163712,73.151794 
	C113.087723,73.441628 113.016380,73.761551 113.009834,74.082794 
	C112.868790,81.005814 112.870171,81.005844 105.384171,80.966263 
	C104.926598,80.937157 104.999802,81.006088 105.034203,81.042755 
z"/>
<path fill="#FFFFFF" opacity="1.000000" stroke="none" 
	d="
M137.199860,177.276031 
	C137.121948,168.999985 137.121948,169.000000 145.398529,169.000000 
	C152.999985,169.000015 152.999985,169.000000 153.000000,176.387100 
	C153.000000,179.715012 153.243515,183.065262 152.940826,186.365402 
	C152.525162,190.897049 152.883743,194.217148 158.864761,193.048294 
	C161.720840,192.490143 161.200775,194.965027 160.902939,196.328064 
	C160.557373,197.909485 162.579971,201.389175 159.185928,200.834213 
	C152.146454,199.683243 152.631805,203.843948 152.862198,208.798798 
	C152.744141,209.280823 152.817581,209.198486 152.848282,209.163666 
	C145.000015,208.811707 145.000015,208.811707 145.000000,200.988434 
	C144.999985,199.828903 144.893677,198.657608 145.020660,197.512146 
	C145.353867,194.506500 145.029678,192.785431 141.052780,192.825592 
	C137.280640,192.863663 136.411102,194.230026 137.019592,197.394363 
	C137.788406,201.392426 135.203720,200.839233 132.654221,201.084183 
	C129.383331,201.398407 128.804718,200.096298 128.935669,197.181686 
	C129.165909,192.056976 129.243179,186.899078 128.919373,181.784531 
	C128.680847,178.016663 129.659882,176.236053 133.665512,176.978317 
	C134.465942,177.126648 135.317947,176.996475 136.604431,176.960754 
	C138.161499,178.083344 138.191406,179.590714 138.410828,181.035690 
	C138.676727,182.786850 139.712982,183.620026 141.458755,183.472931 
	C142.536545,183.382095 143.289276,182.785522 143.439926,181.656326 
	C143.668381,179.943848 143.008896,178.807587 141.235748,178.446564 
	C139.967819,178.188400 138.610489,178.275345 137.199860,177.276031 
z"/>
<path fill="#FFFFFF" opacity="1.000000" stroke="none" 
	d="
M184.999863,164.164581 
	C184.999969,170.316803 184.899078,175.984695 185.046967,181.646057 
	C185.110733,184.087326 184.656769,185.186371 181.838837,185.071411 
	C176.016663,184.833908 170.175415,184.898575 164.347382,185.048004 
	C161.894272,185.110886 160.816193,184.637222 160.929276,181.832336 
	C161.164017,176.009933 161.103882,170.168747 160.951019,164.340881 
	C160.886337,161.875244 161.382843,160.822861 164.174057,160.929779 
	C170.163757,161.159271 176.169830,161.075958 182.166031,160.958878 
	C184.242905,160.918320 185.380112,161.383514 184.999863,164.164581 
z"/>
<path fill="#FFFFFF" opacity="1.000000" stroke="none" 
	d="
M121.400948,97.037430 
	C120.951576,94.657310 120.973259,92.244736 120.962440,89.381096 
	C128.999985,89.108658 128.999985,89.108658 129.000000,81.212234 
	C129.000000,80.881828 129.000000,80.551430 129.000000,80.221024 
	C129.000015,73.006508 129.000015,73.006508 136.611053,72.962448 
	C137.046722,77.384048 137.135254,81.842705 136.953064,86.290268 
	C136.862320,88.505424 137.615326,89.123459 139.754990,89.043892 
	C143.874176,88.890732 148.003021,88.996582 152.598938,88.962555 
	C153.046692,89.919495 152.872910,90.932938 153.026443,91.894081 
	C153.642563,95.750824 152.592178,97.890823 148.196671,97.011864 
	C145.579056,96.488419 144.813599,97.689117 144.946518,100.248619 
	C145.151672,104.198746 145.003372,108.167229 145.037445,112.599014 
	C142.657333,113.048416 140.244797,113.026733 137.381180,113.037575 
	C136.953308,108.615990 136.864761,104.157303 137.046951,99.709709 
	C137.137695,97.494461 136.384567,96.876564 134.244949,96.956116 
	C130.125732,97.109261 125.996864,97.003410 121.400948,97.037430 
z"/>
<path fill="#FFFFFF" opacity="1.000000" stroke="none" 
	d="
M169.028473,144.539383 
	C164.764786,144.951157 160.443527,144.707077 156.175751,145.078140 
	C152.199921,145.423782 153.140503,142.891144 152.973724,140.722733 
	C152.785614,138.277206 152.993347,136.400528 156.230453,136.992416 
	C159.965515,137.675339 161.772446,136.330490 161.004593,132.340302 
	C160.424911,129.327988 162.009888,128.881699 164.612671,128.946457 
	C171.056717,129.106781 177.507538,128.994308 184.337128,128.867249 
	C185.460724,137.000000 185.460724,137.000000 177.316574,137.000000 
	C176.983856,137.000000 176.651138,137.000000 176.318420,137.000000 
	C169.007294,137.000031 169.007294,137.000031 169.028473,144.539383 
z"/>
<path fill="#FFFFFF" opacity="1.000000" stroke="none" 
	d="
M128.956818,145.034363 
	C133.064423,145.045807 137.228653,145.264206 141.346603,144.923355 
	C144.616653,144.652695 145.069366,145.930435 145.072464,148.828033 
	C145.085709,161.193710 145.183594,161.084671 132.784866,161.079056 
	C129.806244,161.077713 128.660690,160.497131 128.926300,157.303589 
	C129.241302,153.516281 129.003006,149.682953 129.033417,145.398193 
	C129.062317,144.926819 128.993500,145.000031 128.956818,145.034363 
z"/>
<path fill="#FFFFFF" opacity="1.000000" stroke="none" 
	d="
M201.028473,200.539383 
	C200.067368,200.951202 199.045319,201.134399 198.081375,200.972244 
	C194.105637,200.303452 192.124527,201.568283 192.994888,205.883728 
	C193.565994,208.715439 192.021347,209.172272 189.634186,209.037247 
	C186.820694,208.878113 183.960648,208.738541 181.176437,209.065094 
	C177.560806,209.489136 176.849152,208.077759 176.863480,204.694519 
	C176.876816,201.536957 177.794434,200.446533 180.778946,201.004410 
	C184.297821,201.662125 185.652985,200.213852 185.000748,196.749054 
	C184.426025,193.696014 185.619766,192.509689 188.734283,192.958664 
	C190.360764,193.193146 192.048904,192.999985 193.709198,193.000000 
	C201.007080,193.000015 201.007080,193.000015 201.028473,200.539383 
z"/>
<path fill="#FFFFFF" opacity="1.000000" stroke="none" 
	d="
M192.962448,129.388885 
	C196.717270,128.953400 200.530106,129.259750 204.284821,128.921387 
	C208.135681,128.574371 209.707214,129.802109 209.020691,133.685425 
	C208.879562,134.483658 209.003387,135.328735 209.037567,136.611084 
	C205.282730,137.046616 201.469894,136.740250 197.715179,137.078644 
	C193.864166,137.425690 192.292816,136.197754 192.979279,132.314484 
	C193.120407,131.516251 192.996628,130.671173 192.962448,129.388885 
z"/>
<path fill="#FFFFFF" opacity="1.000000" stroke="none" 
	d="
M144.962555,113.400940 
	C147.342667,112.951576 149.755203,112.973259 152.618820,112.962418 
	C153.046539,117.227730 152.735260,121.549088 153.083862,125.816528 
	C153.408234,129.787567 150.904205,128.863922 148.730118,129.026199 
	C146.293411,129.208069 144.664032,129.036606 144.925125,125.769722 
	C145.240204,121.827126 144.996719,117.839890 144.962555,113.400940 
z"/>
<path fill="#FFFFFF" opacity="1.000000" stroke="none" 
	d="
M168.957092,145.034393 
	C170.241730,145.045868 171.580414,144.880524 172.879562,145.039124 
	C174.242523,145.205521 176.339859,144.082932 176.822327,145.877136 
	C177.360504,147.878525 177.676529,150.566345 176.743271,152.174057 
	C175.640320,154.074127 172.821930,152.754578 170.765015,152.978546 
	C168.577682,153.216721 169.035049,151.546432 169.008255,150.304749 
	C168.976181,148.818176 169.003189,147.330322 169.033661,145.384918 
	C169.062698,144.926804 168.993759,145.000000 168.957092,145.034393 
z"/>
<path fill="#FFFFFF" opacity="1.000000" stroke="none" 
	d="
M200.957092,201.034393 
	C202.241730,201.045868 203.580414,200.880539 204.879562,201.039154 
	C206.242523,201.205536 208.339828,200.082932 208.822311,201.877136 
	C209.360489,203.878540 209.676544,206.566345 208.743286,208.174057 
	C207.640335,210.074142 204.821930,208.754578 202.765015,208.978561 
	C200.577682,209.216736 201.035049,207.546432 201.008255,206.304749 
	C200.976181,204.818176 201.003204,203.330322 201.033661,201.384918 
	C201.062698,200.926804 200.993759,201.000000 200.957092,201.034393 
z"/>
<path fill="#FFFFFF" opacity="1.000000" stroke="none" 
	d="
M112.957169,177.034332 
	C114.241806,177.045822 115.580498,176.880508 116.879639,177.039124 
	C118.242592,177.205536 120.339890,176.082932 120.822350,177.877197 
	C121.360497,179.878616 121.676567,182.566452 120.743294,184.174118 
	C119.640320,186.074112 116.821892,184.754608 114.764938,184.978531 
	C112.577560,185.216675 113.035065,183.546310 113.008247,182.304688 
	C112.976135,180.818100 113.003204,179.330261 113.033699,177.384827 
	C113.062767,176.926712 112.993843,176.999924 112.957169,177.034332 
z"/>
<path fill="#FFFFFF" opacity="1.000000" stroke="none" 
	d="
M97.034317,193.042908 
	C97.045815,191.758270 96.880508,190.419586 97.039124,189.120438 
	C97.205521,187.757462 96.082947,185.660141 97.877151,185.177689 
	C99.878555,184.639511 102.566383,184.323441 104.174080,185.256714 
	C106.074112,186.359695 104.754623,189.178101 104.978554,191.235031 
	C105.216675,193.422379 103.546356,192.964935 102.304695,192.991730 
	C100.818115,193.023834 99.330261,192.996811 97.384842,192.966339 
	C96.926720,192.937302 96.999924,193.006241 97.034317,193.042908 
z"/>
<path fill="#FFFFFF" opacity="1.000000" stroke="none" 
	d="
M113.034317,169.042908 
	C113.045815,167.758270 112.880501,166.419586 113.039116,165.120438 
	C113.205528,163.757462 112.082947,161.660141 113.877151,161.177689 
	C115.878555,160.639496 118.566376,160.323456 120.174080,161.256714 
	C122.074112,162.359695 120.754616,165.178101 120.978546,167.235031 
	C121.216682,169.422379 119.546356,168.964951 118.304695,168.991745 
	C116.818115,169.023834 115.330261,168.996796 113.384842,168.966339 
	C112.926720,168.937302 112.999924,169.006241 113.034317,169.042908 
z"/>
<path fill="#FFFFFF" opacity="1.000000" stroke="none" 
	d="
M199.808380,152.969177 
	C197.338867,151.866974 193.390747,155.678085 192.994003,150.466354 
	C192.599411,145.283020 194.470779,143.305847 199.295609,145.177902 
	C202.978775,146.606964 200.815216,150.199600 199.808380,152.969177 
z"/>
<path fill="#FFFFFF" opacity="1.000000" stroke="none" 
	d="
M192.612839,120.962463 
	C193.048386,123.342628 193.026718,125.755249 193.037537,128.618942 
	C190.603058,129.040100 188.136078,129.010178 185.193863,128.861664 
	C184.718628,128.743057 184.800873,128.816727 184.835678,128.847412 
	C184.911865,128.557663 184.983566,128.237854 184.990143,127.916702 
	C185.131638,121.006615 185.130219,121.006584 192.612839,120.962463 
z"/>
<path fill="#FFFFFF" opacity="1.000000" stroke="none" 
	d="
M192.962448,113.381058 
	C194.246841,112.953354 195.580383,112.855370 196.876053,113.033279 
	C198.239090,113.220436 200.334503,112.092201 200.819519,113.859451 
	C201.365616,115.849350 201.088928,118.119972 200.874390,120.238541 
	C200.779373,121.176971 199.587677,120.992424 198.786789,120.996460 
	C197.139755,121.004761 195.492661,121.002823 193.387772,121.037537 
	C192.951614,118.657356 192.973282,116.244728 192.962448,113.381058 
z"/>
<path fill="#FFFFFF" opacity="1.000000" stroke="none" 
	d="
M184.962448,105.387283 
	C185.256683,104.951744 185.583191,104.989174 185.910095,104.992928 
	C192.993454,105.074318 192.993469,105.073593 193.037552,112.612671 
	C192.743317,113.048256 192.416794,113.010834 192.089890,113.007072 
	C185.006546,112.925682 185.006531,112.926399 184.962448,105.387283 
z"/>
<path fill="#FFFFFF" opacity="1.000000" stroke="none" 
	d="
M60.985931,73.000000 
	C52.491241,72.999977 44.490437,72.874283 36.497322,73.067261 
	C33.652092,73.135956 32.893501,72.295929 32.934528,69.484077 
	C33.094963,58.489479 33.098331,47.489677 32.932819,36.495232 
	C32.890007,33.651146 33.707806,32.893749 36.517395,32.934654 
	C47.512001,33.094727 58.511806,33.098572 69.506241,32.932701 
	C72.352631,32.889763 73.106979,33.711430 73.065254,36.518887 
	C72.904320,47.346809 72.862770,58.181339 73.082664,69.007187 
	C73.149605,72.302185 72.228844,73.409103 68.974899,73.053513 
	C66.505096,72.783615 63.982151,72.999992 60.985931,73.000000 
z"/>
<path fill="#FFFFFF" opacity="1.000000" stroke="none" 
	d="
M70.802605,216.997925 
	C59.153671,216.999817 47.986473,216.894363 36.823730,217.070663 
	C33.858540,217.117508 32.844234,216.534744 32.911846,213.309006 
	C33.142284,202.314941 33.069862,191.312317 32.947308,180.314804 
	C32.919338,177.804825 33.466194,176.892120 36.198643,176.932083 
	C47.361782,177.095322 58.528801,177.023834 69.694138,176.977982 
	C71.669395,176.969879 73.108131,176.844925 73.067848,179.707108 
	C72.903732,191.370285 72.995087,203.037094 73.003799,214.702576 
	C73.004715,215.924347 73.065041,217.133667 70.802605,216.997925 
z"/>
<path fill="#FFFFFF" opacity="1.000000" stroke="none" 
	d="
M217.000000,42.037704 
	C216.999969,51.531246 216.880692,60.531349 217.069092,69.525009 
	C217.129410,72.403984 216.239944,73.102791 213.461899,73.063614 
	C202.467010,72.908577 191.467056,72.897964 180.472641,73.069008 
	C177.592728,73.113815 176.897522,72.235016 176.936539,69.459946 
	C177.091080,58.465042 177.102356,47.465096 176.930832,36.470695 
	C176.885849,33.587646 177.769455,32.893894 180.542099,32.936577 
	C190.870239,33.095562 201.212494,33.268894 211.528259,32.877979 
	C216.159729,32.702465 217.774094,34.098595 217.023987,38.546604 
	C216.860046,39.518696 217.000000,40.542034 217.000000,42.037704 
z"/>
<path fill="#FFFFFF" opacity="1.000000" stroke="none" 
	d="
M209.042908,104.965683 
	C207.758270,104.954185 206.419586,105.119484 205.120438,104.960869 
	C203.757462,104.794464 201.660141,105.917053 201.177673,104.122849 
	C200.639496,102.121445 200.323441,99.433617 201.256714,97.825920 
	C202.359680,95.925880 205.178101,97.245377 207.235031,97.021446 
	C209.422379,96.783310 208.964920,98.453644 208.991730,99.695305 
	C209.023804,101.181885 208.996796,102.669739 208.966339,104.615158 
	C208.937302,105.073280 209.006241,105.000076 209.042908,104.965683 
z"/>
<path fill="#FFFFFF" opacity="1.000000" stroke="none" 
	d="
M105.042725,48.965847 
	C103.758087,48.954296 102.419388,49.119541 101.120247,48.960884 
	C99.757324,48.794434 97.660072,49.917099 97.177650,48.122688 
	C96.639557,46.121239 96.323418,43.433380 97.256744,41.825787 
	C98.359741,39.925964 101.178200,41.245308 103.235184,41.021446 
	C105.422661,40.783382 104.964851,42.453926 104.991730,43.695438 
	C105.023911,45.182007 104.996796,46.669857 104.966248,48.615303 
	C104.937134,49.073452 105.006065,49.000244 105.042725,48.965847 
z"/>
<path fill="#FFFFFF" opacity="1.000000" stroke="none" 
	d="
M57.037441,136.597900 
	C52.003643,137.048294 46.937347,137.026642 41.400475,137.037445 
	C40.951496,134.659256 40.973099,132.248611 40.960594,129.387512 
	C42.083244,127.838669 43.590515,127.808510 45.035542,127.589218 
	C46.786713,127.323479 47.619984,126.287262 47.472942,124.541458 
	C47.382168,123.463699 46.785767,122.710785 45.656532,122.560089 
	C43.944092,122.331566 42.807793,122.991035 42.446632,124.764145 
	C42.188381,126.032051 42.275272,127.389397 41.275841,128.799927 
	C32.999989,128.877289 32.999989,128.877289 33.000000,120.682259 
	C33.000011,113.000008 33.000011,113.000610 40.729496,112.999794 
	C45.861572,112.999252 50.993652,112.996696 56.597836,112.962555 
	C57.048275,120.661987 57.026611,128.393906 57.037441,136.597900 
z"/>
<path fill="#FFFFFF" opacity="1.000000" stroke="none" 
	d="
M112.962463,97.381004 
	C115.342590,96.951622 117.755211,96.973282 120.618912,96.962440 
	C121.048248,97.256638 121.010834,97.583145 121.007080,97.910049 
	C120.925705,104.993469 120.926422,104.993477 113.387276,105.037537 
	C112.951614,102.657341 112.973282,100.244690 112.962463,97.381004 
z"/>
<path fill="#000000" opacity="1.000000" stroke="none" 
	d="
M136.957092,177.034393 
	C138.241730,177.045853 139.580414,176.880524 140.879562,177.039124 
	C142.242523,177.205521 144.339844,176.082932 144.822327,177.877136 
	C145.360504,179.878525 145.676529,182.566345 144.743286,184.174057 
	C143.640320,186.074127 140.821930,184.754593 138.765015,184.978561 
	C136.577682,185.216736 137.035049,183.546432 137.008255,182.304749 
	C136.976181,180.818176 137.003189,179.330322 137.033661,177.384918 
	C137.062698,176.926804 136.993759,177.000000 136.957092,177.034393 
z"/>
<path fill="#000000" opacity="1.000000" stroke="none" 
	d="
M169.002075,174.871063 
	C169.419464,172.130753 167.387085,168.209686 172.462463,169.040207 
	C173.993591,169.290741 176.533264,167.740555 176.850571,170.405655 
	C177.099686,172.498001 178.232727,175.867050 176.104080,176.656265 
	C174.235413,177.349075 170.776443,178.698578 169.002075,174.871063 
z"/>
<path fill="#000000" opacity="1.000000" stroke="none" 
	d="
M65.000000,58.912693 
	C65.735405,63.720383 64.356369,65.572067 59.579391,65.107269 
	C54.627670,64.625465 49.586876,64.856819 44.596325,65.057274 
	C41.893780,65.165833 40.803539,64.557953 40.928421,61.580372 
	C41.172569,55.758907 41.095169,49.917652 40.952763,44.089432 
	C40.896919,41.804043 41.390087,40.861904 43.924507,40.940533 
	C49.917061,41.126434 55.927498,41.185825 61.914143,40.921444 
	C64.882339,40.790359 65.092804,42.124592 65.034866,44.429287 
	C64.917671,49.091705 64.999969,53.759136 65.000000,58.912693 
z"/>
<path fill="#000000" opacity="1.000000" stroke="none" 
	d="
M41.000000,197.990112 
	C41.074947,193.518814 39.625294,188.237640 41.621014,185.908051 
	C43.975029,183.160233 49.417927,185.100250 53.508041,185.049622 
	C64.998856,184.907349 65.019051,185.000046 64.989563,196.509628 
	C64.979378,200.484528 66.372963,205.767303 64.376503,208.093933 
	C62.021568,210.838333 56.575886,208.643051 52.488689,208.996246 
	C52.157974,209.024826 51.822651,209.000000 51.489468,209.000000 
	C40.999996,209.000000 40.999996,209.000000 41.000000,197.990112 
z"/>
<path fill="#000000" opacity="1.000000" stroke="none" 
	d="
M186.230087,41.030407 
	C193.212585,41.002716 199.712875,41.080967 206.209229,40.955185 
	C208.349274,40.913750 209.105026,41.473698 209.050858,43.722836 
	C208.902435,49.884750 208.915314,56.054371 209.045547,62.217106 
	C209.091034,64.369705 208.507996,65.103989 206.269196,65.050522 
	C200.107224,64.903374 193.939346,65.016945 187.774017,64.985031 
	C186.554642,64.978722 184.876434,65.503059 185.005219,63.262325 
	C185.430237,55.866379 184.086258,48.411427 186.230087,41.030407 
z"/>
<path fill="#000000" opacity="1.000000" stroke="none" 
	d="
M41.034103,129.042633 
	C41.045670,127.757996 40.880447,126.419289 41.039124,125.120155 
	C41.205585,123.757263 40.082874,121.660027 41.877377,121.177628 
	C43.878849,120.639580 46.566719,120.323395 48.174271,121.256752 
	C50.074005,122.359756 48.754726,125.178230 48.978554,127.235229 
	C49.216579,129.422760 47.545994,128.964813 46.304512,128.991699 
	C44.817947,129.023895 43.330097,128.996780 41.384651,128.966217 
	C40.926495,128.937057 40.999699,129.005981 41.034103,129.042633 
z"/>
</svg>