<!--?xml version="1.0" encoding="utf-8"?-->
<!-- Generator: Adobe Illustrator 18.1.1, SVG Export Plug-In . SVG Version: 6.00 Build 0)  -->

<svg version="1.1" id="_x32_" xmlns="http://www.w3.org/2000/svg" xmlns:xlink="http://www.w3.org/1999/xlink" x="0px" y="0px" viewBox="0 0 512 512" style="width: 64px; height: 64px; opacity: 1;" xml:space="preserve">
<style type="text/css">
	.st0{fill:#4B4B4B;}
</style>
<g>
	<path class="st0" d="M133.703,45.86v86.43v240.66c-16.8-6.173-36.654-8.012-57.11-4.054c-49.141,9.454-82.977,48.227-75.577,86.559
		c7.389,38.353,53.195,61.757,102.326,52.292c43.602-8.4,75.093-39.892,76.449-73.727h0.28V129.246L465.644,93.83v237.595
		c-16.811-6.162-36.644-7.98-57.1-4.033c-49.152,9.443-82.966,48.217-75.6,86.559c7.389,38.342,53.185,61.746,102.327,52.271
		c43.612-8.389,75.115-39.892,76.449-73.706H512V90.785V2.152L133.703,45.86z" style="fill: rgb(75, 75, 75);"></path>
</g>
</svg>
