<svg width="1851" height="1001" viewBox="0 0 1851 1001" fill="none" xmlns="http://www.w3.org/2000/svg">
<path d="M49.7028 844.492C49.7028 851.896 55.7043 857.897 63.1075 857.897H143.535V907.047C143.535 914.451 149.537 920.452 156.94 920.452H232.9C240.303 920.452 246.304 914.451 246.304 907.047V857.897H299.923C307.326 857.897 313.327 851.896 313.327 844.492V746.192H411.628C419.031 746.192 425.033 740.19 425.033 732.787V719.382H451.842V746.192C451.842 753.595 457.844 759.596 465.247 759.596H559.079V862.365C559.079 869.769 565.081 875.77 572.484 875.77H715.467C722.87 875.77 728.871 869.769 728.871 862.365V808.747H795.894C803.298 808.747 809.299 802.745 809.299 795.342V777.469H858.449V898.111C858.449 905.514 864.451 911.516 871.854 911.516H912.068V987.475C912.068 994.879 918.069 1000.88 925.473 1000.88H1032.71C1040.11 1000.88 1046.11 994.879 1046.11 987.475V915.984H1206.97C1214.37 915.984 1220.37 909.982 1220.37 902.579V817.683H1247.18V862.365C1247.18 869.769 1253.19 875.77 1260.59 875.77H1452.72C1460.13 875.77 1466.13 869.769 1466.13 862.365V808.747H1515.28V831.088C1515.28 838.491 1521.28 844.492 1528.68 844.492H1568.9V907.047C1568.9 914.451 1574.9 920.452 1582.3 920.452H1622.51C1629.92 920.452 1635.92 914.451 1635.92 907.047V799.81H1680.6V857.897C1680.6 865.3 1686.6 871.302 1694.01 871.302H1765.5C1772.9 871.302 1778.9 865.3 1778.9 857.897V746.192H1805.71C1813.11 746.192 1819.12 740.19 1819.12 732.787V545.122H1836.99C1844.39 545.122 1850.39 539.121 1850.39 531.717V196.601C1850.39 189.198 1844.39 183.197 1836.99 183.197H1747.62H1484V531.717H232.9V703.744H49.7028V844.492Z" fill="#00FF5C"/>
<path d="M0.55249 531.718V813.215C0.55249 820.618 6.55396 826.62 13.9571 826.62H253.007V690.339H1492.94V429.799H1801.24V165.324C1801.24 157.921 1795.24 151.919 1787.84 151.919H1698.47V44.6821C1698.47 37.279 1692.47 31.2775 1685.07 31.2775H1586.77V26.8093C1586.77 19.4061 1580.77 13.4046 1573.36 13.4046H1448.25C1440.85 13.4046 1434.85 19.4061 1434.85 26.8093V58.0868H1385.7V13.4046C1385.7 6.00146 1379.7 0 1372.29 0H1260.59C1253.19 0 1247.18 6.00147 1247.18 13.4047V89.3643H1153.35V53.6186C1153.35 46.2154 1147.35 40.2139 1139.95 40.2139H1095.26C1087.86 40.2139 1081.86 46.2154 1081.86 53.6186V151.919H974.623V102.769C974.623 95.3658 968.622 89.3643 961.218 89.3643H724.403C717 89.3643 710.998 95.3657 710.998 102.769V192.133H643.975V116.174C643.975 108.77 637.974 102.769 630.571 102.769H527.802C520.398 102.769 514.397 108.77 514.397 116.174V165.324H469.715V89.3643C469.715 81.9611 463.713 75.9596 456.31 75.9596H313.327C305.924 75.9596 299.923 81.9611 299.923 89.3643V326.18H277.582V254.688C277.582 247.285 271.58 241.284 264.177 241.284H161.408C154.005 241.284 148.004 247.285 148.004 254.688V518.313H13.9571C6.55395 518.313 0.55249 524.314 0.55249 531.718Z" fill="#BD00FF"/>
<path d="M22.8935 545.122V826.62C22.8935 834.023 28.895 840.024 36.2981 840.024H116.726V889.175C116.726 896.578 122.727 902.579 130.131 902.579H206.09C213.493 902.579 219.495 896.578 219.495 889.175V840.024H273.113C280.517 840.024 286.518 834.023 286.518 826.62V728.319H384.819C392.222 728.319 398.223 722.317 398.223 714.914V701.51H425.033V728.319C425.033 735.722 431.034 741.724 438.437 741.724H532.27V844.492C532.27 851.896 538.271 857.897 545.674 857.897H688.657C696.061 857.897 702.062 851.896 702.062 844.492V790.874H769.085C776.488 790.874 782.49 784.872 782.49 777.469V759.596H831.64V880.238C831.64 887.641 837.642 893.643 845.045 893.643H885.259V969.602C885.259 977.006 891.26 983.007 898.663 983.007H1005.9C1013.3 983.007 1019.31 977.006 1019.31 969.602V898.111H1180.16C1187.56 898.111 1193.57 892.11 1193.57 884.706V799.81H1220.37V844.492C1220.37 851.896 1226.38 857.897 1233.78 857.897H1425.91C1433.32 857.897 1439.32 851.896 1439.32 844.492V790.874H1488.47V813.215C1488.47 820.618 1494.47 826.62 1501.87 826.62H1542.09V889.175C1542.09 896.578 1548.09 902.579 1555.49 902.579H1595.7C1603.11 902.579 1609.11 896.578 1609.11 889.175V781.937H1653.79V840.024C1653.79 847.427 1659.79 853.429 1667.2 853.429H1738.69C1746.09 853.429 1752.09 847.427 1752.09 840.024V728.319H1778.9C1786.3 728.319 1792.31 722.317 1792.31 714.914V527.249H1810.18C1817.58 527.249 1823.58 521.248 1823.58 513.845V178.729C1823.58 171.325 1817.58 165.324 1810.18 165.324H1720.81V58.0868C1720.81 50.6836 1714.81 44.6821 1707.41 44.6821H1609.11V40.2139C1609.11 32.8108 1603.11 26.8093 1595.7 26.8093H1470.59C1463.19 26.8093 1457.19 32.8108 1457.19 40.2139V71.4914H1408.04V26.8093C1408.04 19.4061 1402.04 13.4046 1394.64 13.4046H1282.93C1275.53 13.4046 1269.53 19.4061 1269.53 26.8093V102.769H1175.69V67.0232C1175.69 59.62 1169.69 53.6186 1162.29 53.6186H1117.61C1110.2 53.6186 1104.2 59.62 1104.2 67.0232V165.324H996.964V116.174C996.964 108.77 990.963 102.769 983.559 102.769H746.744C739.341 102.769 733.339 108.77 733.339 116.174V205.538H666.316V129.578C666.316 122.175 660.315 116.174 652.912 116.174H550.143C542.74 116.174 536.738 122.175 536.738 129.578V178.729H492.056V102.769C492.056 95.3657 486.054 89.3643 478.651 89.3643H335.668C328.265 89.3643 322.264 95.3657 322.264 102.769V339.584H299.923V268.093C299.923 260.69 293.921 254.688 286.518 254.688H183.749C176.346 254.688 170.345 260.69 170.345 268.093V531.717H36.2981C28.895 531.717 22.8935 537.719 22.8935 545.122Z" fill="black"/>
<path fill-rule="evenodd" clip-rule="evenodd" d="M985.794 236.815V281.498H972.389V236.815H985.794ZM778.022 290.434V241.284H791.426V290.434H778.022ZM1044.16 467.694L999.48 431.948L1007.85 421.481L1052.54 457.227L1044.16 467.694Z" fill="#BD00FF"/>
<path d="M665.487 709.302C678.958 703.722 690.472 694.273 698.574 682.148C701.101 678.365 703.261 674.375 705.037 670.232H724.145C721.576 677.917 717.985 685.268 713.434 692.078C703.369 707.141 689.064 718.882 672.326 725.815L665.487 709.302Z" fill="#BD00FF"/>
<path d="M511.903 415.633C506.243 417.552 496.524 420.012 483.12 420.012L489.822 402.139C507.695 399.905 523.88 390.044 529.682 384.601C539.921 374.996 546.763 362.324 549.177 348.493C551.592 334.663 549.449 320.422 543.07 307.915C536.692 295.408 526.423 285.312 513.811 279.145C501.198 272.979 486.923 271.076 473.135 273.724C459.348 276.371 446.793 283.426 437.362 293.826C427.93 304.226 422.132 317.408 420.84 331.388L420.827 331.525C420.088 339.517 418.42 357.547 433.969 373.096L425.033 393.203L414.979 380.713C411.808 375.567 409.23 370.121 407.27 364.477C403.421 353.398 401.951 341.559 403.043 329.743C404.691 311.906 412.089 295.088 424.122 281.819C436.156 268.551 452.174 259.55 469.765 256.172C487.356 252.793 505.568 255.221 521.661 263.089C537.753 270.956 550.854 283.838 558.992 299.795C567.13 315.753 569.865 333.922 566.784 351.567C563.703 369.213 554.974 385.38 541.91 397.636C533.256 405.755 523.01 411.866 511.903 415.633Z" fill="#BD00FF"/>
<path d="M1012.6 840.024C1082.93 840.024 1139.95 783.01 1139.95 712.68C1139.95 703.484 1138.97 694.515 1137.12 685.871L1148.77 676.934C1151.76 688.349 1153.35 700.329 1153.35 712.68C1153.35 790.414 1090.34 853.429 1012.6 853.429C934.87 853.429 871.854 790.414 871.854 712.68H885.259C885.259 783.01 942.273 840.024 1012.6 840.024Z" fill="#BD00FF"/>
<path d="M1050.58 712.68C1050.58 733.656 1033.58 750.66 1012.6 750.66C991.627 750.66 974.623 733.656 974.623 712.68C974.623 691.705 991.627 674.7 1012.6 674.7C1033.58 674.7 1050.58 691.705 1050.58 712.68Z" fill="#BD00FF"/>
<path fill-rule="evenodd" clip-rule="evenodd" d="M732.425 453.98L756.89 549.617L789.938 461.491L809.703 528.2L823.821 509.376H891.961V522.781H830.523L804.427 557.576L788.447 503.643L754.471 594.246L729.786 497.75L720.052 522.781H648.444V509.376H710.882L732.425 453.98Z" fill="#BD00FF"/>
<path d="M1478.61 366.394C1475.71 345.274 1465.99 325.535 1450.74 310.289C1432.3 291.854 1407.3 281.498 1381.23 281.498C1355.16 281.498 1330.16 291.854 1311.72 310.289C1296.48 325.535 1286.75 345.274 1283.85 366.394H1270.33C1273.32 341.706 1284.48 318.575 1302.24 300.811C1323.19 279.862 1351.6 268.093 1381.23 268.093C1410.86 268.093 1439.27 279.862 1460.22 300.811C1477.98 318.575 1489.15 341.706 1492.13 366.394H1478.61Z" fill="#BD00FF"/>
<path d="M1484.84 479.594C1469.27 494.935 1450.61 506.546 1430.31 513.845L1425.91 501.183C1444.36 494.529 1461.3 483.97 1475.43 470.044C1481.98 463.592 1487.79 456.554 1492.81 449.056H1508.63C1502.14 460.122 1494.17 470.402 1484.84 479.594Z" fill="#BD00FF"/>
<path d="M1374.53 598.741C1339.12 598.741 1304.62 589.892 1273.99 573.42L1280.7 561.804C1309.3 577.114 1341.49 585.336 1374.53 585.336C1391.25 585.336 1407.75 583.231 1423.68 579.166L1428.15 591.857C1410.79 596.39 1392.78 598.741 1374.53 598.741Z" fill="#BD00FF"/>
<path fill-rule="evenodd" clip-rule="evenodd" d="M1573.36 281.498C1605.44 281.498 1631.45 255.491 1631.45 223.411C1631.45 191.33 1605.44 165.324 1573.36 165.324C1541.28 165.324 1515.28 191.33 1515.28 223.411C1515.28 255.491 1541.28 281.498 1573.36 281.498ZM1573.36 294.902C1612.85 294.902 1644.86 262.894 1644.86 223.411C1644.86 183.927 1612.85 151.919 1573.36 151.919C1533.88 151.919 1501.87 183.927 1501.87 223.411C1501.87 262.894 1533.88 294.902 1573.36 294.902Z" fill="#BD00FF"/>
<path d="M1691.77 464.694C1730.02 464.694 1761.03 433.687 1761.03 395.437C1761.03 357.187 1730.02 326.18 1691.77 326.18C1660.51 326.18 1634.09 346.886 1625.48 375.33L1612.82 370.862C1623.29 337.21 1654.68 312.775 1691.77 312.775C1737.42 312.775 1774.43 349.784 1774.43 395.437C1774.43 441.09 1737.42 478.099 1691.77 478.099C1689.52 478.099 1687.28 478.009 1685.07 477.831L1691.77 464.694Z" fill="#BD00FF"/>
<path fill-rule="evenodd" clip-rule="evenodd" d="M829.406 196.601V326.18H816.002V196.601H829.406ZM950.048 290.434H936.643V227.879H950.048V290.434ZM762.383 272.561H572.484V259.156H762.383V272.561ZM1082.33 423.161L1013.08 371.776L1021.06 361.011L1090.32 412.395L1082.33 423.161Z" fill="#FF8A00"/>
<path d="M622.89 713.498C633.612 715.63 644.627 715.343 655.146 712.715L657.38 730.553C644.949 733.35 632.013 733.535 619.403 731.027C603.944 727.952 589.581 720.949 577.672 710.744L590.357 698.06C599.73 705.792 610.901 711.113 622.89 713.498Z" fill="#FF8A00"/>
<path d="M1010.37 607.677C961.284 607.677 920.236 642.09 910.035 688.105H923.82C933.74 649.561 968.729 621.082 1010.37 621.082C1034.22 621.082 1055.89 630.427 1071.92 645.657L1081.97 636.72C1063.46 618.745 1038.21 607.677 1010.37 607.677Z" fill="#FF8A00"/>
<path d="M1381.23 147.451C1319.61 147.451 1260.51 171.93 1216.94 215.504C1190.93 241.507 1171.73 273.04 1160.47 307.338L1147.97 302.459C1159.9 266.452 1180.13 233.352 1207.46 206.025C1253.55 159.938 1316.05 134.046 1381.23 134.046C1406.77 134.046 1431.9 138.022 1455.8 145.632L1449.39 157.673C1427.5 150.956 1404.55 147.451 1381.23 147.451Z" fill="#FF8A00"/>
<path d="M1379 522.781C1352.06 522.781 1325.86 515.626 1303.04 502.385L1309.74 490.776C1330.53 502.845 1354.41 509.376 1379 509.376C1389.62 509.376 1400.11 508.157 1410.27 505.799L1414.74 518.515C1403.14 521.326 1391.14 522.781 1379 522.781Z" fill="#FF8A00"/>
<path d="M1529.07 532.109C1506.67 554.516 1479.76 571.395 1450.49 581.869L1446.8 568.951C1473.9 559.118 1498.81 543.412 1519.59 522.63C1536.52 505.708 1550.07 486.049 1559.84 464.694H1574.48C1563.93 489.644 1548.6 512.583 1529.07 532.109Z" fill="#FF8A00"/>
<path fill-rule="evenodd" clip-rule="evenodd" d="M1573.36 326.18C1630.12 326.18 1676.13 280.168 1676.13 223.411C1676.13 166.653 1630.12 120.642 1573.36 120.642C1516.61 120.642 1470.59 166.653 1470.59 223.411C1470.59 280.168 1516.61 326.18 1573.36 326.18ZM1573.36 339.584C1585.17 339.584 1596.57 337.822 1607.31 334.547C1630.65 327.428 1650.87 313.156 1665.42 294.286C1680.54 274.673 1689.54 250.092 1689.54 223.411C1689.54 159.25 1637.52 107.237 1573.36 107.237C1509.2 107.237 1457.19 159.25 1457.19 223.411C1457.19 287.572 1509.2 339.584 1573.36 339.584Z" fill="#FF8A00"/>
<path d="M1694.01 491.504C1745.83 491.504 1787.84 449.493 1787.84 397.671C1787.84 345.849 1745.83 303.839 1694.01 303.839C1653.15 303.839 1618.39 329.949 1605.51 366.394L1592.87 361.925C1596.36 352.056 1601.25 342.85 1607.31 334.547C1621.39 315.238 1641.77 300.812 1665.42 294.286C1674.52 291.775 1684.11 290.434 1694.01 290.434C1753.23 290.434 1801.24 338.446 1801.24 397.671C1801.24 456.896 1753.23 504.908 1694.01 504.908C1687.13 504.908 1680.41 504.262 1673.9 503.026L1680.6 490.553C1684.98 491.18 1689.45 491.504 1694.01 491.504Z" fill="#FF8A00"/>
<path fill-rule="evenodd" clip-rule="evenodd" d="M1265.06 795.342L1300.8 759.596L1310.28 769.075L1274.54 804.821L1265.06 795.342Z" fill="#FF8A00"/>
<path fill-rule="evenodd" clip-rule="evenodd" d="M1336.55 634.486V692.573H1323.14V634.486H1336.55Z" fill="#FF8A00"/>
<path fill-rule="evenodd" clip-rule="evenodd" d="M909.834 214.474V303.839H896.43V214.474H909.834ZM1055.05 236.815V281.497H1041.65V236.815H1055.05ZM1109.5 369.787L1071.52 345.211L1078.8 333.957L1116.78 358.532L1109.5 369.787Z" fill="#FF8A00"/>
<path d="M563.581 638.955C563.413 644.5 563.871 650.074 564.964 655.572C567.452 668.08 573.136 679.698 581.42 689.313L568.341 701.51C557.798 689.462 550.572 674.83 547.435 659.059C546.112 652.408 545.538 645.665 545.702 638.955H563.581Z" fill="#FFF500"/>
<path d="M450.982 224.041C477.197 216.089 505.357 217.472 530.666 227.956C555.975 238.439 576.866 257.374 589.78 281.533C602.694 305.693 606.831 333.583 601.486 360.45C596.142 387.318 581.647 411.502 560.471 428.881C539.295 446.259 503.812 451.29 476.417 451.29L483.12 433.417C503.169 431.628 533.467 427.921 549.132 415.065C567.112 400.309 579.419 379.776 583.957 356.964C588.495 334.151 584.982 310.471 574.018 289.958C563.053 269.446 545.316 253.369 523.827 244.468C502.338 235.567 478.428 234.393 456.17 241.144C433.912 247.896 414.684 262.157 401.762 281.496C388.84 300.835 383.023 324.057 385.303 347.204C387.289 367.372 398.716 391.166 411.628 406.607L401.627 421.077C382.256 401.706 370.201 376.218 367.516 348.956C364.831 321.694 371.682 294.344 386.901 271.566C402.121 248.789 424.767 231.993 450.982 224.041Z" fill="#FFF500"/>
<path d="M1010.37 799.81C1059.72 799.81 1099.73 759.801 1099.73 710.446C1099.73 708.191 1099.65 705.956 1099.49 703.744L1112.27 697.041C1112.84 701.429 1113.14 705.903 1113.14 710.446C1113.14 767.204 1067.13 813.215 1010.37 813.215C953.611 813.215 907.6 767.204 907.6 710.446H921.005C921.005 759.801 961.014 799.81 1010.37 799.81Z" fill="#FFF500"/>
<path d="M1381.23 236.815C1400.01 236.815 1418.6 240.514 1435.95 247.699L1434.85 232.89C1417.68 226.625 1399.54 223.411 1381.23 223.411C1360.69 223.411 1340.36 227.456 1321.38 235.315C1302.41 243.174 1285.17 254.694 1270.65 269.216C1256.13 283.737 1244.61 300.978 1236.75 319.951C1230.6 334.784 1226.79 350.45 1225.42 366.394H1238.88C1240.21 352.213 1243.66 338.286 1249.13 325.081C1256.32 307.734 1266.85 291.971 1280.13 278.694C1293.4 265.417 1309.17 254.885 1326.51 247.699C1343.86 240.514 1362.45 236.815 1381.23 236.815Z" fill="#FFF500"/>
<path d="M1376.76 558.527C1345.99 558.527 1316.03 550.59 1289.63 535.851L1296.33 524.24C1320.71 537.814 1348.36 545.122 1376.76 545.122C1390.44 545.122 1403.93 543.428 1416.98 540.157L1421.44 552.852C1406.97 556.59 1391.97 558.527 1376.76 558.527Z" fill="#FFF500"/>
<path d="M1503.14 506.178C1484.88 524.446 1463.06 538.351 1439.32 547.222L1434.85 534.582C1456.73 526.372 1476.82 513.54 1493.66 496.7C1505.8 484.561 1515.86 470.728 1523.6 455.758H1538.55C1529.83 474.314 1517.92 491.406 1503.14 506.178Z" fill="#FFF500"/>
<path d="M197.259 714.914C197.259 732.188 183.255 746.192 165.981 746.192C148.707 746.192 134.704 732.188 134.704 714.914C134.704 697.64 148.707 683.637 165.981 683.637C183.255 683.637 197.259 697.64 197.259 714.914Z" fill="#FFF500"/>
<path fill-rule="evenodd" clip-rule="evenodd" d="M1327.72 764.065C1344.99 764.065 1358.99 750.061 1358.99 732.787C1358.99 715.513 1344.99 701.51 1327.72 701.51C1310.44 701.51 1296.44 715.513 1296.44 732.787C1296.44 750.061 1310.44 764.065 1327.72 764.065ZM1327.72 777.469C1352.39 777.469 1372.4 757.464 1372.4 732.787C1372.4 708.11 1352.39 688.105 1327.72 688.105C1303.04 688.105 1283.03 708.11 1283.03 732.787C1283.03 757.464 1303.04 777.469 1327.72 777.469Z" fill="#FFF500"/>
<path fill-rule="evenodd" clip-rule="evenodd" d="M856.215 352.989V156.388H869.62V352.989H856.215ZM1008.13 319.477V196.601H1021.54V319.477H1008.13ZM1131.59 321.375L1099.84 308.307L1106.54 294.902L1136.49 308.111L1131.59 321.375Z" fill="#00FF5C"/>
<path d="M596.313 579.888C584.189 587.989 574.74 599.504 569.159 612.975C567.721 616.447 566.557 620.009 565.669 623.628L548.441 618.848C549.526 614.531 550.93 610.282 552.647 606.135C559.58 589.398 571.32 575.092 586.384 565.027C590.504 562.274 594.823 559.872 599.293 557.835V577.999C598.287 578.604 597.293 579.234 596.313 579.888Z" fill="#00FF5C"/>
<path d="M1101.07 621.082C1078.16 598.951 1046.97 585.336 1012.6 585.336C965.008 585.336 923.512 611.447 901.657 650.125L890.044 643.423C914.218 600.738 960.046 571.931 1012.6 571.931C1050.85 571.931 1085.54 587.188 1110.9 611.947L1101.07 621.082Z" fill="#00FF5C"/>
<path d="M1376.76 192.133C1352.12 192.133 1327.71 196.987 1304.95 206.418C1282.18 215.849 1261.49 229.673 1244.06 247.099C1226.64 264.525 1212.81 285.213 1203.38 307.982C1195.67 326.612 1191.01 346.337 1189.58 366.394H1176.14C1177.6 344.575 1182.61 323.11 1191 302.852C1201.1 278.457 1215.91 256.292 1234.58 237.621C1253.26 218.949 1275.42 204.139 1299.82 194.034C1324.21 183.929 1350.36 178.729 1376.76 178.729C1397.52 178.729 1418.11 181.942 1437.82 188.224L1433.98 201.07C1415.52 195.157 1396.21 192.133 1376.76 192.133Z" fill="#00FF5C"/>
<path d="M1586.77 225.645C1586.77 234.282 1579.77 241.284 1571.13 241.284C1562.49 241.284 1555.49 234.282 1555.49 225.645C1555.49 217.008 1562.49 210.006 1571.13 210.006C1579.77 210.006 1586.77 217.008 1586.77 225.645Z" fill="#00FF5C"/>
<path d="M1718.73 198.713C1723.57 227.172 1719.93 256.321 1708.42 282.583L1696.63 276.08C1706.71 252.499 1709.84 226.424 1705.52 200.958C1700.44 171.062 1685.37 143.772 1662.78 123.544C1640.19 103.317 1611.4 91.3467 1581.13 89.5896C1550.86 87.8325 1520.88 96.392 1496.1 113.87C1471.32 131.348 1453.2 156.712 1444.7 185.82C1436.19 214.927 1437.81 246.058 1449.28 274.128C1460.76 302.198 1481.41 325.548 1507.87 340.365C1530.4 352.987 1556.02 363.25 1581.61 361.671L1583.78 370.493C1555.18 372.52 1526.5 366.166 1501.32 352.061C1472.21 335.762 1449.5 310.077 1436.87 279.2C1424.25 248.323 1422.48 214.079 1431.83 182.061C1441.18 150.043 1461.12 122.142 1488.38 102.916C1515.63 83.6901 1548.61 74.2747 1581.91 76.2075C1615.21 78.1403 1646.87 91.3072 1671.72 113.558C1696.57 135.808 1713.14 165.828 1718.73 198.713Z" fill="#00FF5C"/>
<path d="M1734.22 397.671C1734.22 375.462 1716.22 357.457 1694.01 357.457C1675.67 357.457 1660.2 369.726 1655.36 386.501L1642.7 382.032C1649.4 360.048 1669.83 344.052 1694.01 344.052C1723.62 344.052 1747.62 368.058 1747.62 397.671C1747.62 427.284 1723.62 451.29 1694.01 451.29L1698.47 437.64C1718.58 435.417 1734.22 418.37 1734.22 397.671Z" fill="#00FF5C"/>
<path fill-rule="evenodd" clip-rule="evenodd" d="M1101.51 383.053C1115.45 359.746 1127.06 334.947 1136.49 308.111L1170.21 319.96C1163.55 338.918 1155.86 357.005 1147.09 374.356H1336.99L1328.88 398.02C1300.63 480.527 1271.84 539.218 1232.47 586.817C1193.05 634.481 1143.98 669.834 1077.18 707.198L1063.42 673.751C1128.43 637.39 1169.51 606.852 1204.93 564.034C1205.45 563.403 1205.97 562.769 1206.49 562.133L1124.83 496.577L1136.85 483.251L1148.88 469.924L1227.65 533.278C1249.33 500.44 1268.1 460.935 1286.69 410.102H1126.84C1097.68 456.352 1059.88 497.081 1012.75 535.64L990.115 507.974C1037.68 469.057 1074.22 428.673 1101.51 383.053ZM452.329 368.083C456.957 356.243 459.842 348.417 466.667 332.434L498.758 346.791C492.974 360.338 491.167 367.033 486.572 378.737C479.106 397.752 472.284 415.127 463.101 433.436C452.822 505.759 458.527 549.809 485.354 576.4C498.983 589.521 507.084 598.011 517.53 608.821C520.381 611.771 523.533 615.033 527.217 618.825L501.577 643.732C497.776 639.819 494.563 636.494 491.689 633.521L465.247 600.975C438.437 569.697 369.239 586.405 319.57 624.011C287.854 654.105 275.221 665.488 229.559 693.646L211.38 665.608C254.244 639.175 259.92 631.559 290.261 602.773C318.481 554.034 322.581 526.295 301.736 476.122C288.786 466.73 260.493 446.357 243.983 436.7L262.03 405.845C279.955 416.329 310.341 438.175 324.162 448.176C369.316 456.171 392.766 448.472 431.756 416.199C439.958 399.729 445.609 385.272 452.329 368.083ZM428.282 460.026C396.656 477.037 373.849 486.359 339.836 484.932C350.137 519.922 350.771 539.703 338.322 575.376C375.166 559.725 400.319 556.346 437.219 556.423C426.533 520.633 424.419 496.04 428.282 460.026ZM1641.96 396.697H1454.59L1455.63 360.754L1676.83 360.951L1737.27 421.384L1732.98 432.284C1709.2 492.718 1691.98 527.852 1655.82 575.431C1702.52 617.434 1728.67 644.732 1757.59 677.315L1729.7 701.861C1698.89 667.159 1673.16 638.288 1619.63 591.063L1606.9 579.837L1617.45 566.547C1655.75 518.307 1672.66 486.697 1695.4 430.067L1675.23 409.897C1646.56 472.658 1616.76 521.129 1578.71 563.543C1536.01 611.139 1495.7 643.929 1424.9 687.131L1404.61 658.088C1474.03 615.729 1512.71 583.583 1552.1 539.673C1586.76 501.038 1614.56 456.384 1641.96 396.697ZM650.678 401.165C648.21 401.165 646.209 403.166 646.209 405.634V626.81H896.429V405.634C896.429 403.166 894.429 401.165 891.961 401.165H650.678ZM896.429 662.556V691.599H932.175V405.634C932.175 383.424 914.171 365.42 891.961 365.42H650.678C628.468 365.42 610.464 383.424 610.464 405.634V689.365H646.209V662.556H896.429Z" fill="#00FF5C"/>
<path fill-rule="evenodd" clip-rule="evenodd" d="M523.24 357.743L438.344 319.764L447.467 299.37L532.363 337.35L523.24 357.743ZM740.042 401.165C694.613 424.432 674.223 444.709 646.209 492.764V463.72C666.571 431.339 680.735 417.608 710.998 401.165L740.042 401.165ZM1094.5 529.429C1094.5 529.429 1094.49 529.429 1086.33 521.807L1078.16 514.185C1081.44 510.664 1127.94 463.71 1133.24 457.992L1148.88 469.924C1137.68 482.252 1123.57 498.115 1112.95 509.573C1107.64 515.305 1097.79 525.893 1094.5 529.423C1092.86 531.188 1095.4 528.456 1094.5 529.423L1094.5 529.429ZM1579.52 602.987C1602.41 618.848 1636.47 648.956 1675.37 690.685L1659.02 705.918C1621.21 665.345 1600.66 648.818 1580.65 632.73C1579.51 631.819 1581.8 633.662 1580.65 632.73C1562.34 650.122 1549.29 662.35 1534.41 673.895C1517.59 686.946 1498.62 698.981 1467.2 716.937L1456.12 697.539C1487.25 679.749 1505.14 668.327 1520.72 656.244C1535.72 644.604 1559.96 623.316 1579.52 602.987ZM1672.83 723.786L1714.61 684.926L1742.76 660.834L1757.63 677.285L1729.7 701.861L1701.77 726.436L1672.83 723.786Z" fill="#00FF5C"/>
<path d="M1411.61 376.59C1411.61 393.371 1398.01 406.974 1381.23 406.974C1364.45 406.974 1350.85 393.371 1350.85 376.59C1350.85 359.81 1364.45 346.206 1381.23 346.206C1398.01 346.206 1411.61 359.81 1411.61 376.59Z" fill="#00FF5C"/>
<path d="M1410.38 446.821C1401.82 450.051 1390.5 452.55 1381.34 452.55V426.722C1393.62 425.56 1399.6 423.753 1408.14 417.785C1411 415.925 1413.67 413.768 1416.09 411.345C1420.65 406.781 1424.27 401.362 1426.74 395.399C1429.21 389.436 1430.49 383.045 1430.49 376.59C1430.49 370.136 1429.21 363.744 1426.74 357.781C1424.27 351.818 1420.65 346.4 1416.09 341.836C1410.38 335.116 1394.28 327.968 1381.34 326.459V300.631C1390.5 300.631 1401.84 303.183 1410.4 306.413C1409.65 306.103 1411.16 306.698 1410.4 306.413C1419.62 310.23 1427.99 315.825 1435.05 322.879C1442.1 329.932 1447.7 338.306 1451.51 347.522C1455.33 356.738 1457.29 366.615 1457.29 376.59C1457.29 386.565 1455.33 396.443 1451.51 405.659C1447.7 414.875 1442.01 423.336 1434.96 430.389C1427.91 437.443 1419.59 443.004 1410.38 446.821Z" fill="#00FF5C"/>
<path fill-rule="evenodd" clip-rule="evenodd" d="M1012.6 765.325C1040.98 765.325 1063.99 742.319 1063.99 713.94C1063.99 685.562 1040.98 662.556 1012.6 662.556C984.224 662.556 961.218 685.562 961.218 713.94C961.218 742.319 984.224 765.325 1012.6 765.325ZM1012.6 778.729C1048.38 778.729 1077.39 749.722 1077.39 713.94C1077.39 678.158 1048.38 649.151 1012.6 649.151C976.821 649.151 947.814 678.158 947.814 713.94C947.814 749.722 976.821 778.729 1012.6 778.729Z" fill="#00FF5C"/>
<path fill-rule="evenodd" clip-rule="evenodd" d="M1624.56 432.443H1495.17L1472.83 414.57H1633.52L1624.56 432.443Z" fill="#00FF5C"/>
<path fill-rule="evenodd" clip-rule="evenodd" d="M1329.85 810.007C1373.03 810.007 1408.04 774.998 1408.04 731.813C1408.04 688.628 1373.03 653.619 1329.85 653.619C1286.66 653.619 1251.65 688.628 1251.65 731.813C1251.65 774.998 1286.66 810.007 1329.85 810.007ZM1329.85 836.816C1387.84 836.816 1434.85 789.805 1434.85 731.813C1434.85 673.822 1387.84 626.81 1329.85 626.81C1271.85 626.81 1224.84 673.822 1224.84 731.813C1224.84 789.805 1271.85 836.816 1329.85 836.816Z" fill="#00FF5C"/>
<path d="M438.437 319.621L466.667 332.434L456.31 358.717C465.187 337.783 461.531 329.131 438.437 319.621Z" fill="#00FF5C"/>
<path d="M498.758 346.791L523.034 357.634C504.682 348.261 497.809 349.956 490.573 368.029L498.758 346.791Z" fill="#00FF5C"/>
<path d="M646.209 662.556H670.785C651.734 662.538 646.166 668.205 646.209 689.365V662.556Z" fill="#00FF5C"/>
<path d="M646.209 662.556H670.785C651.734 662.538 646.166 668.205 646.209 689.365V662.556Z" fill="#00FF5C"/>
<path d="M646.209 600.001C646.168 621.367 651.811 626.946 670.784 626.81H646.209L646.209 600.001Z" fill="#00FF5C"/>
<path d="M646.209 600.001C646.168 621.367 651.811 626.946 670.784 626.81H646.209L646.209 600.001Z" fill="#00FF5C"/>
<path d="M896.43 600.001C896.624 620.747 891.341 626.726 871.855 626.81H896.429L896.43 600.001Z" fill="#00FF5C"/>
<path d="M896.43 600.001C896.624 620.747 891.341 626.726 871.855 626.81H896.429L896.43 600.001Z" fill="#00FF5C"/>
<path d="M896.429 662.556H871.854C891.96 662.602 896.407 669.96 896.429 691.599V662.556Z" fill="#00FF5C"/>
<path d="M896.429 662.556H871.854C891.96 662.602 896.407 669.96 896.429 691.599V662.556Z" fill="#00FF5C"/>
<path d="M896.429 497.232C872.038 449.669 852.214 428.431 804.831 401.165H833.874C865.945 419.74 879.598 434.45 896.429 468.189V497.232Z" fill="#00FF5C"/>
<path fill-rule="evenodd" clip-rule="evenodd" d="M165.981 759.596C190.658 759.596 210.663 739.592 210.663 714.914C210.663 690.237 190.658 670.232 165.981 670.232C141.304 670.232 121.299 690.237 121.299 714.914C121.299 739.592 141.304 759.596 165.981 759.596ZM165.981 781.937C202.997 781.937 233.004 751.93 233.004 714.914C233.004 677.898 202.997 647.891 165.981 647.891C128.965 647.891 98.9579 677.898 98.9579 714.914C98.9579 751.93 128.965 781.937 165.981 781.937Z" fill="#00FF5C"/>
</svg>
